<?xml version="1.0" encoding="UTF-8" standalone="no"?><!-- Generator: Gravit.io --><svg xmlns="http://www.w3.org/2000/svg" xmlns:xlink="http://www.w3.org/1999/xlink" style="isolation:isolate" viewBox="0 0 477.112 477.112" width="477.112pt" height="477.112pt"><defs><clipPath id="_clipPath_gX425uYiWRRDVjH9obdeiYnREfTgWPAO"><rect width="477.112" height="477.112"/></clipPath></defs><g clip-path="url(#_clipPath_gX425uYiWRRDVjH9obdeiYnREfTgWPAO)"><path d=" M 238.556 8 C 150.19 8 78.556 79.634 78.556 168 C 78.556 256.368 238.556 464 238.556 464 C 238.556 464 398.556 256.368 398.556 168 C 398.556 79.634 326.922 8 238.556 8 Z  M 238.556 216 C 212.046 216 190.556 194.51 190.556 168 C 190.556 141.49 212.046 120 238.556 120 C 265.066 120 286.556 141.49 286.556 168 C 286.556 194.51 265.066 216 238.556 216 Z " fill="rgb(215,29,82)"/><circle vector-effect="non-scaling-stroke" cx="238.55600000000004" cy="168" r="48.000000000000014" fill="rgb(255,255,255)"/><g><path d=" M 238.556 477.112 L 232.22 468.88 C 225.62 460.32 70.556 258.056 70.556 168 C 70.556 75.216 145.772 0 238.556 0 C 331.34 0 406.556 75.216 406.556 168 C 406.556 258.056 251.492 460.32 244.892 468.88 L 238.556 477.112 L 238.556 477.112 Z  M 238.556 16 C 154.647 16.093 86.649 84.091 86.556 168 C 86.556 242.832 209.028 411.2 238.556 450.728 C 268.084 411.2 390.556 242.816 390.556 168 C 390.463 84.091 322.465 16.093 238.556 16 Z " fill="rgb(35,31,32)"/><path d=" M 238.556 224 C 207.628 224 182.556 198.928 182.556 168 C 182.556 137.072 207.628 112 238.556 112 C 269.484 112 294.556 137.072 294.556 168 C 294.521 198.913 269.469 223.965 238.556 224 Z  M 238.556 128 C 216.465 128 198.556 145.909 198.556 168 C 198.556 190.091 216.465 208 238.556 208 C 260.647 208 278.556 190.091 278.556 168 C 278.53 145.92 260.636 128.026 238.556 128 Z " fill="rgb(35,31,32)"/></g></g></svg>