<svg xmlns="http://www.w3.org/2000/svg" viewBox="0 0 1000 472.395" width="1333.333" height="629.86"><defs><clipPath id="A"><path d="M0 0h1000v472.395H0z"/></clipPath></defs><g clip-path="url(#A)" fill="#7e8795"><path d="M105.977 295.142L82.27 314.25l2.963 92.48 21.153 14.817-72.45 6.336 24.934-20.744 6.233-99.02-21.357-16.758 62.232 3.78zm107.49 66.727h0q0 5.723-.51 12.058h0q-.51 6.336-1.533 12.672h0q-1.022 6.335-2.503 12.364h0q-1.482 6.03-3.424 11.036h0l20.13 6.54-53.24 10.423 18.087-13.59q2.146-7.868 2.912-15.123h0q.767-7.255.767-13.693h0q0-3.883-.256-8.84h0q-.255-4.956-1.124-10.066h0q-.868-5.11-2.452-10.014h0q-1.584-4.905-4.14-8.737h0q-2.555-3.832-6.284-6.13h0q-3.73-2.3-8.942-2.3h0q-6.03 0-12.262 3.985h0q-6.233 3.985-11.547 11.75h0v56.5l16.86 12.058-50.583 3.576 13.387-14.817 7.153-74.3-21.766-10.73 34.948-3.475v15.43q2.963-4.088 6.54-7.664h0q3.576-3.577 7.562-6.183h0q3.985-2.605 8.328-4.087h0q4.343-1.482 8.94-1.482h0q8.9 0 15.43 3.27h0q6.54 3.27 10.883 9.044h0q4.343 5.773 6.49 13.59h0q2.146 7.817 2.146 16.91zm71.417-38.626h0q8.584 0 15.584 3.73h0q7 3.73 11.29 10.065h0L332.4 316.1l-16.963 55.283q-.92-8.584-2.86-14.562h0q-1.942-5.978-4.445-9.912h0q-2.504-3.934-5.212-6.08h0q-2.708-2.146-5.007-3.168h0q-2.3-1.022-3.985-1.226h0q-1.686-.204-2.095-.204h0q-7.358 0-13.284 2.86h0q-5.927 2.86-10.168 8.38h0q-4.24 5.518-6.49 13.54h0q-2.248 8.02-2.248 18.24h0q0 9.8 2.35 17.32h0q2.35 7.5 6.234 12.62h0q3.883 5.11 8.9 7.715h0q5.007 2.606 10.32 2.606h0q6.233 0 11.547-2.8h0q5.314-2.81 9.094-7.41h0q3.78-4.598 5.672-10.576h0q1.9-5.978 1.277-12.314h0q1.226 1.124 2.606 2.76h0q1.38 1.635 2.555 3.628h0q1.175 1.992 1.9 4.292h0q.715 2.3.715 4.65h0q0 6.95-3.32 12.518h0q-3.32 5.57-8.532 9.452h0q-5.212 3.883-11.752 5.978h0q-6.54 2.095-12.977 2.095h0q-2.76 0-7.51-.613h0q-4.752-.613-10.32-2.504h0q-5.57-1.9-11.292-5.467h0q-5.722-3.576-10.372-9.503h0q-4.65-5.927-7.613-14.613h0q-2.963-8.686-2.963-20.846h0q0-10.832 2.504-19.16h0q2.503-8.328 6.642-14.46h0q4.138-6.13 9.35-10.22h0q5.21-4.087 10.627-6.54h0q5.416-2.452 10.577-3.525h0q5.16-1.073 9.043-1.073zm107.387 95.85l-51.707 7.255 16.044-12.57-3.475-70.51-18.904-12.364 43.94-7.46L370.3 405.4l21.97 13.693zm-12.978-120.376h0q0 3.066-1.226 5.774h0q-1.226 2.708-3.372 4.802h0q-2.146 2.095-4.905 3.27h0q-2.76 1.175-5.825 1.175h0q-3.27 0-6.08-1.175h0q-2.8-1.175-4.854-3.27h0q-2.043-2.094-3.27-4.802h0q-1.226-2.708-1.226-5.774h0q0-3.168 1.226-5.876h0q1.227-2.708 3.27-4.75h0q2.044-2.044 4.854-3.22h0q2.8-1.175 6.08-1.175h0q3.066 0 5.825 1.175h0q2.76 1.175 4.905 3.22h0q2.146 2.043 3.372 4.75h0q1.226 2.708 1.226 5.876zm120.058-4.394l-13.182 118.23 22.583 8.38-36.99 7.153.41-19.926q-2.453 4.2-5.62 8.022h0q-3.167 3.832-7.102 6.795h0q-3.934 2.963-8.737 4.752h0q-4.802 1.788-10.423 1.788h0q-7.97-.204-15.072-3.577h0q-7.102-3.372-12.467-9.656h0q-5.365-6.285-8.48-15.43h0q-3.117-9.146-3.117-20.898h0q0-14.306 3.372-25.035h0q3.372-10.73 9.197-17.883h0q5.824-7.153 13.642-10.73h0q7.817-3.576 16.707-3.576h0q8.993 0 16.708 3.832h0q7.715 3.832 12.62 10.27h0l.41-24.116-24.934-9.402 50.48-8.992zM443.454 416.54h0q.307 0 2.044-.204h0q1.737-.204 4.292-1.073h0q2.554-.87 5.67-2.606h0q3.117-1.737 6.233-4.854h0q3.117-3.116 5.978-7.817h0q2.862-4.7 4.905-11.445h0l.613-33.313q-1.532-3.678-3.832-7.05h0q-2.3-3.372-5.11-5.978h0q-2.8-2.605-6.233-4.19h0q-3.424-1.584-7.204-1.584h0q-7.05 0-12.007 3.474h0q-4.956 3.475-8.175 9.606h0q-3.22 6.13-4.7 14.5h0q-1.482 8.38-1.482 18.2h0q0 7.255 1.227 13.54h0q1.226 6.285 3.576 10.883h0q2.35 4.6 5.927 7.255h0q3.577 2.657 8.277 2.657zm164.305-46.7l-66.32 17.985q1.328 5.722 3.576 11.19h0q2.248 5.467 5.518 9.76h0q3.27 4.292 7.562 6.95h0q4.292 2.657 9.708 2.657h0q7.153 0 12.467-2.964h0q5.313-2.963 8.686-7.51h0q3.372-4.547 4.7-10.014h0q1.33-5.467.51-10.474h0q2.86 1.124 4.752 2.963h0q1.9 1.84 2.963 4.037h0q1.073 2.197 1.482 4.496h0q.41 2.3.41 4.445h0q0 4.905-2.862 9.452h0q-2.86 4.548-8.02 8.073h0q-5.16 3.526-12.212 5.672h0q-7.05 2.145-15.43 2.145h0q-11.24 0-20.08-4.394h0q-8.84-4.394-14.97-11.904h0q-6.13-7.51-9.4-17.628h0q-3.27-10.116-3.27-21.56h0q0-11.65 3.27-21.5h0q3.27-9.86 9.657-16.8h0q6.386-6.95 15.685-10.525h0q9.3-3.577 21.46-2.86h0q8.38.613 15.43 4.802h0q7.05 4.2 12.313 10.78h0q5.263 6.59 8.482 15.073h0q3.22 8.48 3.934 17.678h0zm-68.26 1.533h0q0 1.43 0 2.8h0q0 1.38.205 2.8h0l44.86-16.35q-2.25-7.357-5.06-12.62h0q-2.8-5.263-5.875-8.635h0q-3.066-3.372-6.183-4.956h0q-3.116-1.584-5.978-1.584h0q-4.29 0-7.56 1.635h0q-3.27 1.635-5.672 4.445h0q-2.4 2.81-4.087 6.592h0q-1.686 3.78-2.708 8.072h0q-1.022 4.292-1.482 8.84h0q-.46 4.548-.46 8.942zm178.1-9.504h0q0 5.723-.51 12.058h0q-.51 6.336-1.533 12.672h0q-1.02 6.335-2.503 12.364h0q-1.482 6.03-3.423 11.036h0l20.13 6.54-53.24 10.423 18.087-13.59q2.146-7.868 2.913-15.123h0q.766-7.255.766-13.693h0q0-3.883-.256-8.84h0q-.255-4.956-1.124-10.066h0q-.868-5.11-2.452-10.014h0q-1.584-4.905-4.14-8.737h0q-2.554-3.832-6.284-6.13h0q-3.73-2.3-8.94-2.3h0q-6.03 0-12.263 3.985h0q-6.233 3.985-11.547 11.75h0v56.5l16.86 12.058-50.583 3.576 13.387-14.817 7.153-74.3-21.766-10.73 34.948-3.475v15.43q2.963-4.088 6.54-7.664h0q3.577-3.577 7.562-6.183h0q3.985-2.605 8.328-4.087h0q4.343-1.482 8.94-1.482h0q8.89 0 15.43 3.27h0q6.54 3.27 10.882 9.044h0q4.343 5.773 6.49 13.59h0q2.146 7.817 2.146 16.91zm29.93 18.7h0q0-9.606 1.992-19.16h0q1.993-9.555 4.343-17.525h0l-17.678 1.124 49.867-54.466q-5.927 18.7-9.606 33.722h0l39.75 3.372-5.212 12.262-38.524 2.76q-1.43 7.46-2.197 13.233h0q-.766 5.774-1.277 9.76h0q-.51 4.7-.716 8.175h0q0 10.22 1.227 18.394h0q1.226 8.175 3.832 13.948h0q2.605 5.774 6.642 8.89h0q4.036 3.116 9.656 3.116h0q5.212 0 8.737-2.095h0q3.526-2.094 5.672-5.415h0q2.146-3.322 3.065-7.46h0q.92-4.14.92-8.226h0q0-3.78-.613-7.358h0q4.394 2.25 6.693 7.205h0q2.3 4.956 2.3 10.78h0q0 6.03-1.992 10.628h0q-1.993 4.598-5.467 7.715h0q-3.475 3.116-8.175 4.75h0q-4.7 1.635-10.117 1.635h0q-3.27 0-7.715-.715h0q-4.445-.715-9.248-2.606h0q-4.802-1.9-9.503-5.364h0q-4.7-3.475-8.38-8.993h0q-3.68-5.518-5.978-13.437h0q-2.3-7.92-2.3-18.65zm121.08-59.27h0q3.884 0 7.87.665h0q3.985.664 7.817 1.94h0q3.832 1.277 7.255 3.066h0q3.424 1.788 6.183 3.934h0l16.758-20.642-7.562 50.99q-1.226-5.313-4.29-10.474h0q-3.066-5.16-7.613-9.248h0q-4.548-4.087-10.474-6.59h0q-5.927-2.503-12.978-2.503h0q-3.883 0-7.46.868h0q-3.576.87-6.284 2.8h0q-2.708 1.942-4.292 4.905h0q-1.584 2.964-1.584 7.05h0q0 4.905 2.708 7.97h0q2.708 3.065 7.102 5.16h0q4.394 2.095 10.014 3.577h0q5.62 1.48 11.547 3.116h0q5.927 1.635 11.547 3.832h0q5.62 2.197 10.015 5.672h0q4.394 3.474 7.102 8.635h0q2.708 5.16 2.708 12.722h0q0 8.48-3.32 14.46h0q-3.322 5.978-8.533 9.8h0q-5.212 3.832-11.547 5.57h0q-6.336 1.737-12.365 1.737h0q-4.905 0-9.8-1.02h0q-4.905-1.022-9.503-2.862h0q-4.598-1.84-8.737-4.394h0q-4.14-2.554-7.51-5.518h0l-15.532 20.744 4.803-50.684q3.27 6.948 7.868 12.977h0q4.598 6.03 10.22 10.474h0q5.62 4.446 12.058 6.95h0q6.438 2.504 13.386 2.504h0q8.073 0 12.927-3.424h0q4.854-3.423 4.854-9.758h0q0-4.088-2.708-6.796h0q-2.708-2.708-7.153-4.752h0q-4.445-2.043-10.066-3.678h0q-5.62-1.635-11.547-3.577h0q-5.927-1.94-11.547-4.547h0q-5.62-2.606-10.065-6.54h0q-4.445-3.934-7.153-9.606h0q-2.708-5.67-2.708-13.744h0q0-6.948 2.043-12.058h0q2.044-5.11 5.365-8.634h0q3.32-3.526 7.46-5.723h0q4.138-2.197 8.328-3.372h0q4.2-1.175 7.97-1.584h0q3.78-.41 6.437-.41z"/><path d="M151.552 132.563v46.3L34.14 183.45l25.955-22.583 6.13-98.814-28.1-14.613 68.056-4.394L84.62 57.66l1.226 103.617 47.313 5.825 18.393-34.54zm15.623-.41h0q0-11.445 3.628-21.204h0q3.628-9.76 10.117-16.912h0q6.488-7.153 15.43-11.19h0q8.94-4.037 19.568-4.037h0q10.32 0 18.905 3.832h0q8.584 3.832 14.92 10.78h0q6.336 6.95 10.117 16.656h0q3.78 9.708 4.496 21.46h0q.715 12.57-2.606 22.736h0q-3.32 10.168-9.76 17.27h0q-6.437 7.102-15.38 10.985h0q-8.94 3.883-19.364 3.883h0q-10.014 0-19.058-3.628h0q-9.043-3.627-15.94-10.576h0q-6.898-6.95-10.985-17.014h0q-4.088-10.066-4.088-23.043zm25.138 1.737h0q0 8.992 2.555 16.248h0q2.555 7.255 6.847 12.313h0q4.29 5.058 9.912 7.817h0q5.62 2.76 11.853 2.76h0q6.234 0 11.65-2.708h0q5.415-2.707 9.4-7.664h0q3.985-4.956 6.233-11.904h0q2.248-6.95 2.248-15.43h0q0-8.38-2.248-15.788h0q-2.248-7.41-6.284-12.927h0q-4.037-5.518-9.555-8.686h0q-5.518-3.168-12.058-3.168h0q-5.824 0-11.29 2.657h0q-5.467 2.657-9.76 7.715h0q-4.292 5.06-6.898 12.314h0q-2.606 7.255-2.606 16.452zM330.56 81.367h0q8.583 0 15.583 3.73h0q7 3.73 11.292 10.065h0l20.64-20.948-16.963 55.283q-.92-8.584-2.86-14.562h0q-1.94-5.978-4.445-9.912h0q-2.504-3.934-5.21-6.08h0q-2.708-2.146-5.008-3.168h0q-2.3-1.022-3.985-1.226h0q-1.686-.204-2.095-.204h0q-7.357 0-13.284 2.86h0q-5.927 2.86-10.168 8.38h0q-4.24 5.518-6.488 13.54h0q-2.25 8.022-2.25 18.24h0q0 9.8 2.35 17.32h0q2.35 7.51 6.233 12.62h0q3.883 5.11 8.9 7.715h0q5.008 2.606 10.32 2.606h0q6.234 0 11.547-2.8h0q5.314-2.8 9.095-7.41h0q3.78-4.598 5.67-10.576h0q1.89-5.978 1.278-12.314h0q1.226 1.124 2.605 2.76h0q1.38 1.635 2.555 3.628h0q1.175 1.993 1.89 4.292h0q.715 2.3.715 4.65h0q0 6.95-3.32 12.518h0q-3.32 5.57-8.533 9.452h0q-5.21 3.884-11.75 5.978h0q-6.54 2.095-12.978 2.095h0q-2.76 0-7.51-.613h0q-4.75-.613-10.32-2.503h0q-5.57-1.89-11.29-5.467h0q-5.723-3.577-10.372-9.504h0q-4.65-5.927-7.613-14.612h0q-2.963-8.686-2.963-20.847h0q0-10.83 2.503-19.16h0q2.504-8.328 6.642-14.46h0q4.14-6.13 9.35-10.22h0q5.212-4.087 10.628-6.54h0q5.416-2.452 10.576-3.525h0q5.16-1.073 9.044-1.073zm147.34 38.422h0q0 5.416-.613 11.65h0q-.613 6.234-1.788 12.672h0q-1.175 6.437-2.76 12.62h0q-1.584 6.182-3.423 11.393h0l21.765 15.328-38.524-1.635 2.35-12.568q-6.13 7.664-14.152 11.7h0q-8.022 4.036-18.547 4.854h0q-8.584.613-14.97-1.175h0q-6.386-1.79-10.627-5.518h0q-4.24-3.73-6.285-9.197h0q-2.043-5.467-2.043-12.212h0q0-6.233 3.065-12.11h0q3.066-5.875 8.84-10.372h0q5.774-4.496 14.153-7.204h0q8.38-2.708 19.007-2.708h0q4.905 0 11.292.92h0q6.386.92 12.11 3.883h0q-.51-6.233-1.89-12.722h0q-1.38-6.49-4.036-11.803h0q-2.657-5.313-6.898-8.635h0q-4.24-3.32-10.576-3.32h0q-5.416 0-10.525 2.25h0q-5.1 2.248-9.555 6.437h0q-4.445 4.2-8.02 10.22h0q-3.577 6.03-6.03 13.59h0l-8.584-50.072 12.978 19.927q4.802-5.927 9.707-9.453h0q4.905-3.525 9.76-5.415h0q4.854-1.89 9.4-2.504h0q4.548-.613 8.737-.613h0q7.87.41 14.562 3.22h0q6.693 2.8 11.598 8.072h0q4.905 5.263 7.715 12.927h0q2.8 7.664 2.8 17.576zm-21.152 32.7h0q.204-2.86.306-5.518h0q.102-2.657.102-5.212h0v-1.226q-3.678-1.43-7.408-2.197h0q-3.73-.766-6.898-1.124h0q-3.167-.358-5.364-.41h0q-2.197-.05-2.913-.05h0q-5.824.205-10.116 2.146h0q-4.292 1.942-7.102 4.854h0q-2.8 2.912-4.2 6.49h0q-1.38 3.576-1.38 7.05h0q0 7.868 3.832 11.904h0q3.832 4.037 11.19 4.037h0q4.905 0 9.3-1.737h0q4.394-1.738 8.226-4.65h0q3.832-2.912 6.95-6.642h0q3.116-3.73 5.467-7.715zm80.818-110.464L525 170.678l20.437 8.175-51.195 5.007 18.393-14.408L509.467 59.1l-23.605-10.218 51.706-6.847z"/></g></svg>