<?xml version="1.0" encoding="UTF-8" standalone="no"?><!-- Generator: Gravit.io --><svg xmlns="http://www.w3.org/2000/svg" xmlns:xlink="http://www.w3.org/1999/xlink" style="isolation:isolate" viewBox="0 0 1000 1000" width="1000pt" height="1000pt"><defs><clipPath id="_clipPath_rtvjhQyRkIl3I7Z75MvXVeJ8ZpO0XR4n"><rect width="1000" height="1000"/></clipPath></defs><g clip-path="url(#_clipPath_rtvjhQyRkIl3I7Z75MvXVeJ8ZpO0XR4n)"><path d=" M 29.718 501 C 29.718 243.484 239.1 34.413 497 34.413 C 754.9 34.413 964.282 243.484 964.282 501 C 964.282 758.516 754.9 967.587 497 967.587 C 239.1 967.587 29.718 758.516 29.718 501 Z " fill="none"/><path d=" M 49.479 500.67 C 49.479 253.62 250.052 53.047 497.102 53.047 C 744.151 53.047 944.725 253.62 944.725 500.67 C 944.725 747.72 744.151 948.293 497.102 948.293 C 250.052 948.293 49.479 747.72 49.479 500.67 Z " fill="none"/><path d=" M 95.414 690.062 C 96.911 689.773 98.424 689.486 99.952 689.202 C 165.848 676.947 260.813 669.255 366.303 669.255 C 565.226 669.255 726.726 696.606 726.726 730.295 C 726.726 763.983 565.226 791.334 366.303 791.334 C 289.012 791.334 217.37 787.205 158.657 780.179 C 155.792 779.837 152.959 779.487 150.157 779.131 C 142.921 764.81 122.254 743.969 111.687 722.947 C 106.06 709.867 96.315 704.226 95.414 690.062" fill="rgb(76,28,33)" vector-effect="non-scaling-stroke" stroke-width="1" stroke="rgb(119,31,31)" stroke-linejoin="miter" stroke-linecap="square" stroke-miterlimit="3"/><path d=" M 357.583 733.201 L 231.334 413.243 L 500.681 414.439 L 357.583 733.201 Z " fill="rgb(166,11,44)"/><path d=" M 218.064 352.431 C 218.064 270.616 284.487 204.192 366.303 204.192 C 448.118 204.192 514.541 270.616 514.541 352.431 C 514.541 434.246 448.118 500.67 366.303 500.67 C 284.487 500.67 218.064 434.246 218.064 352.431 Z " fill="rgb(166,11,44)"/><path d=" M 296.543 352.431 C 296.543 313.93 327.801 282.672 366.303 282.672 C 404.804 282.672 436.062 313.93 436.062 352.431 C 436.062 390.932 404.804 422.191 366.303 422.191 C 327.801 422.191 296.543 390.932 296.543 352.431 Z " fill="rgb(255,255,255)"/><path d=" M 481.683 152.168 L 477.868 152.168 L 481.229 136.454 L 481.229 136.454 Q 481.637 134.319 481.637 133.388 L 481.637 133.388 L 481.637 133.388 Q 481.637 130.028 478.299 130.028 L 478.299 130.028 L 478.299 130.028 Q 476.278 130.028 474.359 131.367 L 474.359 131.367 L 474.359 131.367 Q 472.441 132.707 470.976 135.262 L 470.976 135.262 L 470.976 135.262 Q 469.511 137.816 468.762 141.427 L 468.762 141.427 L 466.468 152.168 L 462.653 152.168 L 470.147 116.834 L 473.962 116.834 L 473.962 116.834 Q 473.553 118.696 473.179 120.445 L 473.179 120.445 L 473.179 120.445 Q 472.804 122.193 472.406 123.999 L 472.406 123.999 L 472.406 123.999 Q 472.009 125.804 471.544 127.779 L 471.544 127.779 L 471.544 127.779 Q 471.078 129.755 470.465 132.071 L 470.465 132.071 L 470.715 132.071 L 470.715 132.071 Q 472.849 129.278 474.927 128.075 L 474.927 128.075 L 474.927 128.075 Q 477.005 126.871 479.276 126.871 L 479.276 126.871 L 479.276 126.871 Q 482.25 126.871 483.874 128.506 L 483.874 128.506 L 483.874 128.506 Q 485.498 130.141 485.498 133.139 L 485.498 133.139 L 485.498 133.139 Q 485.498 134.546 484.975 136.908 L 484.975 136.908 L 484.975 136.908 Q 484.09 141.291 481.683 152.168 L 481.683 152.168 L 481.683 152.168 Z  M 502.665 126.826 L 502.665 126.826 L 502.665 126.826 Q 504.754 126.826 506.389 127.95 L 506.389 127.95 L 506.389 127.95 Q 508.024 129.074 508.933 131.186 L 508.933 131.186 L 509.182 131.186 L 510.704 127.28 L 513.588 127.28 L 508.297 152.168 L 505.277 152.168 L 505.867 147.422 L 505.685 147.422 L 505.685 147.422 Q 501.62 152.622 497.124 152.622 L 497.124 152.622 L 497.124 152.622 Q 493.968 152.622 492.174 150.374 L 492.174 150.374 L 492.174 150.374 Q 490.38 148.126 490.38 144.22 L 490.38 144.22 L 490.38 144.22 Q 490.38 139.497 491.992 135.455 L 491.992 135.455 L 491.992 135.455 Q 493.605 131.413 496.443 129.119 L 496.443 129.119 L 496.443 129.119 Q 499.282 126.826 502.665 126.826 Z  M 498.351 149.466 L 498.351 149.466 L 498.351 149.466 Q 500.553 149.466 502.733 147.365 L 502.733 147.365 L 502.733 147.365 Q 504.913 145.265 506.276 141.893 L 506.276 141.893 L 506.276 141.893 Q 507.638 138.52 507.638 135.137 L 507.638 135.137 L 507.638 135.137 Q 507.638 132.798 506.366 131.413 L 506.366 131.413 L 506.366 131.413 Q 505.095 130.028 503.028 130.028 L 503.028 130.028 L 503.028 130.028 Q 500.667 130.028 498.634 131.98 L 498.634 131.98 L 498.634 131.98 Q 496.602 133.933 495.444 137.271 L 495.444 137.271 L 495.444 137.271 Q 494.286 140.61 494.286 144.311 L 494.286 144.311 L 494.286 144.311 Q 494.286 146.9 495.353 148.183 L 495.353 148.183 L 495.353 148.183 Q 496.42 149.466 498.351 149.466 Z  M 526.804 152.622 L 526.804 152.622 L 526.804 152.622 Q 524.601 152.622 522.943 151.487 L 522.943 151.487 L 522.943 151.487 Q 521.286 150.351 520.377 148.308 L 520.377 148.308 L 520.15 148.308 L 520.06 149.171 L 520.06 149.171 Q 519.991 149.738 519.821 150.76 L 519.821 150.76 L 519.821 150.76 Q 519.651 151.782 517.221 163.34 L 517.221 163.34 L 513.451 163.34 L 521.081 127.28 L 524.238 127.28 L 523.647 132.026 L 523.829 132.026 L 523.829 132.026 Q 527.894 126.871 532.276 126.871 L 532.276 126.871 L 532.276 126.871 Q 535.388 126.871 537.181 129.085 L 537.181 129.085 L 537.181 129.085 Q 538.975 131.299 538.975 135.296 L 538.975 135.296 L 538.975 135.296 Q 538.975 140.11 537.409 144.129 L 537.409 144.129 L 537.409 144.129 Q 535.842 148.149 533.071 150.385 L 533.071 150.385 L 533.071 150.385 Q 530.301 152.622 526.804 152.622 Z  M 531.028 130.028 L 531.028 130.028 L 531.028 130.028 Q 528.848 130.028 526.588 132.185 L 526.588 132.185 L 526.588 132.185 Q 524.329 134.342 523 137.612 L 523 137.612 L 523 137.612 Q 521.672 140.882 521.672 144.311 L 521.672 144.311 L 521.672 144.311 Q 521.672 146.809 522.932 148.137 L 522.932 148.137 L 522.932 148.137 Q 524.192 149.466 526.577 149.466 L 526.577 149.466 L 526.577 149.466 Q 528.825 149.466 530.766 147.626 L 530.766 147.626 L 530.766 147.626 Q 532.708 145.787 533.889 142.392 L 533.889 142.392 L 533.889 142.392 Q 535.07 138.997 535.07 135.182 L 535.07 135.182 L 535.07 135.182 Q 535.07 130.028 531.028 130.028 Z  M 553.645 152.622 L 553.645 152.622 L 553.645 152.622 Q 551.442 152.622 549.784 151.487 L 549.784 151.487 L 549.784 151.487 Q 548.127 150.351 547.218 148.308 L 547.218 148.308 L 546.991 148.308 L 546.901 149.171 L 546.901 149.171 Q 546.832 149.738 546.662 150.76 L 546.662 150.76 L 546.662 150.76 Q 546.492 151.782 544.062 163.34 L 544.062 163.34 L 540.292 163.34 L 547.922 127.28 L 551.079 127.28 L 550.488 132.026 L 550.67 132.026 L 550.67 132.026 Q 554.735 126.871 559.118 126.871 L 559.118 126.871 L 559.118 126.871 Q 562.229 126.871 564.022 129.085 L 564.022 129.085 L 564.022 129.085 Q 565.816 131.299 565.816 135.296 L 565.816 135.296 L 565.816 135.296 Q 565.816 140.11 564.25 144.129 L 564.25 144.129 L 564.25 144.129 Q 562.683 148.149 559.912 150.385 L 559.912 150.385 L 559.912 150.385 Q 557.142 152.622 553.645 152.622 Z  M 557.869 130.028 L 557.869 130.028 L 557.869 130.028 Q 555.689 130.028 553.429 132.185 L 553.429 132.185 L 553.429 132.185 Q 551.17 134.342 549.841 137.612 L 549.841 137.612 L 549.841 137.612 Q 548.513 140.882 548.513 144.311 L 548.513 144.311 L 548.513 144.311 Q 548.513 146.809 549.773 148.137 L 549.773 148.137 L 549.773 148.137 Q 551.033 149.466 553.418 149.466 L 553.418 149.466 L 553.418 149.466 Q 555.666 149.466 557.607 147.626 L 557.607 147.626 L 557.607 147.626 Q 559.549 145.787 560.73 142.392 L 560.73 142.392 L 560.73 142.392 Q 561.911 138.997 561.911 135.182 L 561.911 135.182 L 561.911 135.182 Q 561.911 130.028 557.869 130.028 Z  M 579.282 152.622 L 579.282 152.622 L 579.282 152.622 Q 575.104 152.622 572.72 150.147 L 572.72 150.147 L 572.72 150.147 Q 570.335 147.672 570.335 143.289 L 570.335 143.289 L 570.335 143.289 Q 570.335 139.02 572.027 135.103 L 572.027 135.103 L 572.027 135.103 Q 573.719 131.186 576.512 129.006 L 576.512 129.006 L 576.512 129.006 Q 579.305 126.826 582.666 126.826 L 582.666 126.826 L 582.666 126.826 Q 586.14 126.826 587.889 128.336 L 587.889 128.336 L 587.889 128.336 Q 589.637 129.846 589.637 132.548 L 589.637 132.548 L 589.637 132.548 Q 589.637 136.636 585.868 138.963 L 585.868 138.963 L 585.868 138.963 Q 582.098 141.291 575.081 141.291 L 575.081 141.291 L 574.332 141.291 L 574.241 143.107 L 574.241 143.107 Q 574.241 146.082 575.638 147.751 L 575.638 147.751 L 575.638 147.751 Q 577.034 149.42 579.964 149.42 L 579.964 149.42 L 579.964 149.42 Q 581.394 149.42 582.904 149.012 L 582.904 149.012 L 582.904 149.012 Q 584.414 148.603 586.663 147.513 L 586.663 147.513 L 586.663 150.828 L 586.663 150.828 Q 584.528 151.827 582.893 152.225 L 582.893 152.225 L 582.893 152.225 Q 581.258 152.622 579.282 152.622 Z  M 582.439 130.073 L 582.439 130.073 L 582.439 130.073 Q 580.1 130.073 578.045 132.208 L 578.045 132.208 L 578.045 132.208 Q 575.99 134.342 574.9 138.134 L 574.9 138.134 L 575.172 138.134 L 575.172 138.134 Q 580.35 138.134 583.109 136.783 L 583.109 136.783 L 583.109 136.783 Q 585.868 135.432 585.868 132.866 L 585.868 132.866 L 585.868 132.866 Q 585.868 131.663 585.039 130.868 L 585.039 130.868 L 585.039 130.868 Q 584.21 130.073 582.439 130.073 Z  M 611.46 152.168 L 607.599 152.168 L 610.96 136.454 L 610.96 136.454 Q 611.414 134.092 611.414 133.184 L 611.414 133.184 L 611.414 133.184 Q 611.414 131.753 610.608 130.89 L 610.608 130.89 L 610.608 130.89 Q 609.802 130.028 608.031 130.028 L 608.031 130.028 L 608.031 130.028 Q 606.01 130.028 604.091 131.39 L 604.091 131.39 L 604.091 131.39 Q 602.172 132.753 600.707 135.273 L 600.707 135.273 L 600.707 135.273 Q 599.243 137.794 598.493 141.382 L 598.493 141.382 L 596.2 152.168 L 592.385 152.168 L 597.699 127.28 L 600.855 127.28 L 600.356 131.89 L 600.583 131.89 L 600.583 131.89 Q 602.763 129.119 604.795 127.972 L 604.795 127.972 L 604.795 127.972 Q 606.827 126.826 609.007 126.826 L 609.007 126.826 L 609.007 126.826 Q 611.891 126.826 613.56 128.404 L 613.56 128.404 L 613.56 128.404 Q 615.229 129.982 615.229 132.821 L 615.229 132.821 L 615.229 132.821 Q 615.229 134.615 614.707 136.908 L 614.707 136.908 L 611.46 152.168 L 611.46 152.168 Z  M 634.577 145.106 L 634.577 145.106 L 634.577 145.106 Q 634.577 148.648 632.067 150.635 L 632.067 150.635 L 632.067 150.635 Q 629.558 152.622 624.994 152.622 L 624.994 152.622 L 624.994 152.622 Q 621.156 152.622 618.068 151.055 L 618.068 151.055 L 618.068 147.467 L 618.068 147.467 Q 619.657 148.421 621.497 148.943 L 621.497 148.943 L 621.497 148.943 Q 623.336 149.466 624.903 149.466 L 624.903 149.466 L 624.903 149.466 Q 627.764 149.466 629.218 148.33 L 629.218 148.33 L 629.218 148.33 Q 630.671 147.195 630.671 145.424 L 630.671 145.424 L 630.671 145.424 Q 630.671 144.129 629.876 143.244 L 629.876 143.244 L 629.876 143.244 Q 629.081 142.358 626.447 140.814 L 626.447 140.814 L 626.447 140.814 Q 623.495 139.156 622.269 137.567 L 622.269 137.567 L 622.269 137.567 Q 621.043 135.977 621.043 133.797 L 621.043 133.797 L 621.043 133.797 Q 621.043 130.663 623.336 128.745 L 623.336 128.745 L 623.336 128.745 Q 625.63 126.826 629.377 126.826 L 629.377 126.826 L 629.377 126.826 Q 633.26 126.826 636.87 128.506 L 636.87 128.506 L 635.644 131.617 L 634.372 131.049 L 634.372 131.049 Q 632.079 130.073 629.377 130.073 L 629.377 130.073 L 629.377 130.073 Q 627.265 130.073 626.061 131.061 L 626.061 131.061 L 626.061 131.061 Q 624.858 132.049 624.858 133.615 L 624.858 133.615 L 624.858 133.615 Q 624.858 134.887 625.664 135.795 L 625.664 135.795 L 625.664 135.795 Q 626.47 136.704 628.99 138.134 L 628.99 138.134 L 628.99 138.134 Q 631.42 139.497 632.476 140.473 L 632.476 140.473 L 632.476 140.473 Q 633.532 141.45 634.054 142.574 L 634.054 142.574 L 634.054 142.574 Q 634.577 143.698 634.577 145.106 Z  M 379.042 142.54 L 379.042 142.54 L 379.042 142.54 Q 379.042 147.331 375.851 149.977 L 375.851 149.977 L 375.851 149.977 Q 372.661 152.622 366.87 152.622 L 366.87 152.622 L 366.87 152.622 Q 364.463 152.622 362.635 152.293 L 362.635 152.293 L 362.635 152.293 Q 360.807 151.964 359.195 151.192 L 359.195 151.192 L 359.195 147.331 L 359.195 147.331 Q 362.874 149.239 366.916 149.239 L 366.916 149.239 L 366.916 149.239 Q 370.594 149.239 372.752 147.524 L 372.752 147.524 L 372.752 147.524 Q 374.909 145.81 374.909 142.812 L 374.909 142.812 L 374.909 142.812 Q 374.909 141.041 373.717 139.69 L 373.717 139.69 L 373.717 139.69 Q 372.525 138.339 369.277 136.499 L 369.277 136.499 L 369.277 136.499 Q 365.848 134.569 364.52 132.639 L 364.52 132.639 L 364.52 132.639 Q 363.192 130.709 363.192 128.075 L 363.192 128.075 L 363.192 128.075 Q 363.192 123.828 366.189 121.16 L 366.189 121.16 L 366.189 121.16 Q 369.187 118.492 374.069 118.492 L 374.069 118.492 L 374.069 118.492 Q 376.317 118.492 378.258 118.923 L 378.258 118.923 L 378.258 118.923 Q 380.2 119.355 382.357 120.399 L 382.357 120.399 L 380.859 123.806 L 380.859 123.806 Q 379.36 122.943 377.498 122.443 L 377.498 122.443 L 377.498 122.443 Q 375.636 121.943 374.069 121.943 L 374.069 121.943 L 374.069 121.943 Q 371.026 121.943 369.175 123.522 L 369.175 123.522 L 369.175 123.522 Q 367.325 125.1 367.325 127.802 L 367.325 127.802 L 367.325 127.802 Q 367.325 129.028 367.711 129.903 L 367.711 129.903 L 367.711 129.903 Q 368.097 130.777 368.937 131.549 L 368.937 131.549 L 368.937 131.549 Q 369.777 132.321 372.161 133.706 L 372.161 133.706 L 372.161 133.706 Q 375.499 135.705 376.669 136.84 L 376.669 136.84 L 376.669 136.84 Q 377.838 137.975 378.44 139.349 L 378.44 139.349 L 378.44 139.349 Q 379.042 140.723 379.042 142.54 Z  M 402.023 152.168 L 398.208 152.168 L 401.568 136.454 L 401.568 136.454 Q 401.977 134.319 401.977 133.388 L 401.977 133.388 L 401.977 133.388 Q 401.977 130.028 398.639 130.028 L 398.639 130.028 L 398.639 130.028 Q 396.618 130.028 394.699 131.367 L 394.699 131.367 L 394.699 131.367 Q 392.78 132.707 391.316 135.262 L 391.316 135.262 L 391.316 135.262 Q 389.851 137.816 389.102 141.427 L 389.102 141.427 L 386.808 152.168 L 382.993 152.168 L 390.487 116.834 L 394.302 116.834 L 394.302 116.834 Q 393.893 118.696 393.518 120.445 L 393.518 120.445 L 393.518 120.445 Q 393.144 122.193 392.746 123.999 L 392.746 123.999 L 392.746 123.999 Q 392.349 125.804 391.883 127.779 L 391.883 127.779 L 391.883 127.779 Q 391.418 129.755 390.805 132.071 L 390.805 132.071 L 391.055 132.071 L 391.055 132.071 Q 393.189 129.278 395.267 128.075 L 395.267 128.075 L 395.267 128.075 Q 397.345 126.871 399.615 126.871 L 399.615 126.871 L 399.615 126.871 Q 402.59 126.871 404.214 128.506 L 404.214 128.506 L 404.214 128.506 Q 405.838 130.141 405.838 133.139 L 405.838 133.139 L 405.838 133.139 Q 405.838 134.546 405.315 136.908 L 405.315 136.908 L 405.315 136.908 Q 404.43 141.291 402.023 152.168 L 402.023 152.168 L 402.023 152.168 Z  M 423.981 116.675 L 427.887 117.47 L 425.094 126.167 L 434.677 125.758 L 434.495 129.324 L 425.571 128.256 L 429.658 136.954 L 425.889 138.134 L 423.323 128.915 L 417.464 136.726 L 414.83 133.979 L 421.847 127.53 L 413.377 125.054 L 414.626 121.557 L 423.05 125.758 L 423.981 116.675 L 423.981 116.675 Z  M 443.124 149.511 L 443.124 149.511 L 443.124 149.511 Q 444.373 149.511 446.394 148.921 L 446.394 148.921 L 446.394 151.85 L 446.394 151.85 Q 445.622 152.168 444.487 152.395 L 444.487 152.395 L 444.487 152.395 Q 443.351 152.622 442.67 152.622 L 442.67 152.622 L 442.67 152.622 Q 439.832 152.622 438.322 151.271 L 438.322 151.271 L 438.322 151.271 Q 436.811 149.92 436.811 147.24 L 436.811 147.24 L 436.811 147.24 Q 436.811 145.742 437.22 143.834 L 437.22 143.834 L 440.104 130.164 L 436.198 130.164 L 436.516 128.506 L 440.717 126.735 L 443.556 121.557 L 445.781 121.557 L 444.532 127.28 L 450.754 127.28 L 450.164 130.164 L 443.965 130.164 L 441.035 143.88 L 441.035 143.88 Q 440.626 145.855 440.626 146.877 L 440.626 146.877 L 440.626 146.877 Q 440.626 148.149 441.285 148.83 L 441.285 148.83 L 441.285 148.83 Q 441.943 149.511 443.124 149.511 Z " fill="rgb(79,79,79)"/><path d=" M 540.52 534.925 L 528.666 544.48 L 530.148 590.719 L 540.724 598.128 L 504.499 601.295 L 516.966 590.923 L 520.082 541.414 L 509.404 533.035 L 540.52 534.925 L 540.52 534.925 Z  M 591.357 568.289 L 591.357 568.289 L 591.357 568.289 Q 591.357 571.15 591.102 574.318 L 591.102 574.318 L 591.102 574.318 Q 590.846 577.486 590.336 580.654 L 590.336 580.654 L 590.336 580.654 Q 589.825 583.821 589.084 586.836 L 589.084 586.836 L 589.084 586.836 Q 588.343 589.851 587.372 592.354 L 587.372 592.354 L 597.438 595.624 L 570.818 600.836 L 579.861 594.04 L 579.861 594.04 Q 580.934 590.106 581.318 586.478 L 581.318 586.478 L 581.318 586.478 Q 581.701 582.851 581.701 579.632 L 581.701 579.632 L 581.701 579.632 Q 581.701 577.69 581.573 575.212 L 581.573 575.212 L 581.573 575.212 Q 581.445 572.734 581.011 570.18 L 581.011 570.18 L 581.011 570.18 Q 580.577 567.625 579.785 565.172 L 579.785 565.172 L 579.785 565.172 Q 578.993 562.72 577.715 560.804 L 577.715 560.804 L 577.715 560.804 Q 576.438 558.888 574.573 557.738 L 574.573 557.738 L 574.573 557.738 Q 572.708 556.589 570.103 556.589 L 570.103 556.589 L 570.103 556.589 Q 567.088 556.589 563.971 558.581 L 563.971 558.581 L 563.971 558.581 Q 560.855 560.574 558.198 564.457 L 558.198 564.457 L 558.198 592.712 L 566.628 598.741 L 541.337 600.529 L 548.03 593.12 L 551.607 555.976 L 540.724 550.611 L 558.198 548.874 L 558.198 556.589 L 558.198 556.589 Q 559.68 554.545 561.468 552.757 L 561.468 552.757 L 561.468 552.757 Q 563.256 550.968 565.249 549.666 L 565.249 549.666 L 565.249 549.666 Q 567.241 548.363 569.413 547.622 L 569.413 547.622 L 569.413 547.622 Q 571.584 546.881 573.883 546.881 L 573.883 546.881 L 573.883 546.881 Q 578.329 546.881 581.599 548.516 L 581.599 548.516 L 581.599 548.516 Q 584.869 550.151 587.04 553.038 L 587.04 553.038 L 587.04 553.038 Q 589.211 555.925 590.284 559.833 L 590.284 559.833 L 590.284 559.833 Q 591.357 563.742 591.357 568.289 Z  M 624.159 548.976 L 624.159 548.976 L 624.159 548.976 Q 628.451 548.976 631.951 550.841 L 631.951 550.841 L 631.951 550.841 Q 635.451 552.706 637.597 555.873 L 637.597 555.873 L 647.918 545.399 L 639.436 573.041 L 639.436 573.041 Q 638.976 568.749 638.006 565.76 L 638.006 565.76 L 638.006 565.76 Q 637.035 562.771 635.783 560.804 L 635.783 560.804 L 635.783 560.804 Q 634.531 558.837 633.177 557.764 L 633.177 557.764 L 633.177 557.764 Q 631.823 556.691 630.674 556.18 L 630.674 556.18 L 630.674 556.18 Q 629.524 555.669 628.681 555.567 L 628.681 555.567 L 628.681 555.567 Q 627.838 555.465 627.634 555.465 L 627.634 555.465 L 627.634 555.465 Q 623.955 555.465 620.992 556.895 L 620.992 556.895 L 620.992 556.895 Q 618.028 558.326 615.908 561.085 L 615.908 561.085 L 615.908 561.085 Q 613.787 563.844 612.663 567.855 L 612.663 567.855 L 612.663 567.855 Q 611.539 571.866 611.539 576.975 L 611.539 576.975 L 611.539 576.975 Q 611.539 581.88 612.714 585.635 L 612.714 585.635 L 612.714 585.635 Q 613.89 589.391 615.831 591.945 L 615.831 591.945 L 615.831 591.945 Q 617.773 594.5 620.276 595.803 L 620.276 595.803 L 620.276 595.803 Q 622.78 597.106 625.437 597.106 L 625.437 597.106 L 625.437 597.106 Q 628.553 597.106 631.21 595.701 L 631.21 595.701 L 631.21 595.701 Q 633.867 594.296 635.758 591.996 L 635.758 591.996 L 635.758 591.996 Q 637.648 589.697 638.593 586.708 L 638.593 586.708 L 638.593 586.708 Q 639.538 583.719 639.232 580.552 L 639.232 580.552 L 639.232 580.552 Q 639.845 581.114 640.535 581.931 L 640.535 581.931 L 640.535 581.931 Q 641.225 582.749 641.812 583.745 L 641.812 583.745 L 641.812 583.745 Q 642.4 584.741 642.757 585.891 L 642.757 585.891 L 642.757 585.891 Q 643.115 587.04 643.115 588.216 L 643.115 588.216 L 643.115 588.216 Q 643.115 591.69 641.454 594.474 L 641.454 594.474 L 641.454 594.474 Q 639.794 597.259 637.188 599.201 L 637.188 599.201 L 637.188 599.201 Q 634.582 601.142 631.312 602.19 L 631.312 602.19 L 631.312 602.19 Q 628.042 603.237 624.824 603.237 L 624.824 603.237 L 624.824 603.237 Q 623.444 603.237 621.068 602.93 L 621.068 602.93 L 621.068 602.93 Q 618.692 602.624 615.908 601.679 L 615.908 601.679 L 615.908 601.679 Q 613.123 600.733 610.262 598.945 L 610.262 598.945 L 610.262 598.945 Q 607.401 597.157 605.076 594.193 L 605.076 594.193 L 605.076 594.193 Q 602.751 591.23 601.27 586.887 L 601.27 586.887 L 601.27 586.887 Q 599.788 582.544 599.788 576.464 L 599.788 576.464 L 599.788 576.464 Q 599.788 571.048 601.04 566.884 L 601.04 566.884 L 601.04 566.884 Q 602.291 562.72 604.361 559.654 L 604.361 559.654 L 604.361 559.654 Q 606.43 556.589 609.036 554.545 L 609.036 554.545 L 609.036 554.545 Q 611.641 552.501 614.349 551.275 L 614.349 551.275 L 614.349 551.275 Q 617.057 550.049 619.638 549.512 L 619.638 549.512 L 619.638 549.512 Q 622.218 548.976 624.159 548.976 Z  M 674.946 596.901 L 649.093 600.529 L 657.115 594.245 L 655.377 558.99 L 645.925 552.808 L 667.895 549.078 L 663.961 590.055 L 674.946 596.901 L 674.946 596.901 Z  M 668.457 536.713 L 668.457 536.713 L 668.457 536.713 Q 668.457 538.246 667.844 539.6 L 667.844 539.6 L 667.844 539.6 Q 667.231 540.954 666.158 542.002 L 666.158 542.002 L 666.158 542.002 Q 665.085 543.049 663.706 543.637 L 663.706 543.637 L 663.706 543.637 Q 662.326 544.224 660.793 544.224 L 660.793 544.224 L 660.793 544.224 Q 659.158 544.224 657.753 543.637 L 657.753 543.637 L 657.753 543.637 Q 656.348 543.049 655.326 542.002 L 655.326 542.002 L 655.326 542.002 Q 654.304 540.954 653.691 539.6 L 653.691 539.6 L 653.691 539.6 Q 653.078 538.246 653.078 536.713 L 653.078 536.713 L 653.078 536.713 Q 653.078 535.13 653.691 533.776 L 653.691 533.776 L 653.691 533.776 Q 654.304 532.422 655.326 531.4 L 655.326 531.4 L 655.326 531.4 Q 656.348 530.378 657.753 529.79 L 657.753 529.79 L 657.753 529.79 Q 659.158 529.203 660.793 529.203 L 660.793 529.203 L 660.793 529.203 Q 662.326 529.203 663.706 529.79 L 663.706 529.79 L 663.706 529.79 Q 665.085 530.378 666.158 531.4 L 666.158 531.4 L 666.158 531.4 Q 667.231 532.422 667.844 533.776 L 667.844 533.776 L 667.844 533.776 Q 668.457 535.13 668.457 536.713 Z  M 725.58 534.516 L 718.989 593.631 L 730.28 597.821 L 711.784 601.398 L 711.989 591.434 L 711.989 591.434 Q 710.763 593.529 709.179 595.445 L 709.179 595.445 L 709.179 595.445 Q 707.595 597.361 705.628 598.843 L 705.628 598.843 L 705.628 598.843 Q 703.661 600.325 701.259 601.219 L 701.259 601.219 L 701.259 601.219 Q 698.858 602.113 696.048 602.113 L 696.048 602.113 L 696.048 602.113 Q 692.062 602.011 688.511 600.325 L 688.511 600.325 L 688.511 600.325 Q 684.96 598.639 682.278 595.496 L 682.278 595.496 L 682.278 595.496 Q 679.596 592.354 678.037 587.781 L 678.037 587.781 L 678.037 587.781 Q 676.479 583.208 676.479 577.333 L 676.479 577.333 L 676.479 577.333 Q 676.479 570.18 678.165 564.815 L 678.165 564.815 L 678.165 564.815 Q 679.851 559.45 682.763 555.873 L 682.763 555.873 L 682.763 555.873 Q 685.676 552.297 689.584 550.509 L 689.584 550.509 L 689.584 550.509 Q 693.493 548.72 697.938 548.72 L 697.938 548.72 L 697.938 548.72 Q 702.434 548.72 706.292 550.636 L 706.292 550.636 L 706.292 550.636 Q 710.149 552.552 712.602 555.771 L 712.602 555.771 L 712.806 543.713 L 700.339 539.013 L 725.58 534.516 L 725.58 534.516 Z  M 697.632 595.624 L 697.632 595.624 L 697.632 595.624 Q 697.785 595.624 698.653 595.522 L 698.653 595.522 L 698.653 595.522 Q 699.522 595.42 700.799 594.985 L 700.799 594.985 L 700.799 594.985 Q 702.077 594.551 703.635 593.683 L 703.635 593.683 L 703.635 593.683 Q 705.193 592.814 706.752 591.256 L 706.752 591.256 L 706.752 591.256 Q 708.31 589.697 709.741 587.347 L 709.741 587.347 L 709.741 587.347 Q 711.171 584.997 712.193 581.624 L 712.193 581.624 L 712.5 564.968 L 712.5 564.968 Q 711.733 563.129 710.584 561.443 L 710.584 561.443 L 710.584 561.443 Q 709.434 559.757 708.029 558.454 L 708.029 558.454 L 708.029 558.454 Q 706.624 557.151 704.912 556.359 L 704.912 556.359 L 704.912 556.359 Q 703.201 555.567 701.31 555.567 L 701.31 555.567 L 701.31 555.567 Q 697.785 555.567 695.307 557.304 L 695.307 557.304 L 695.307 557.304 Q 692.829 559.041 691.219 562.107 L 691.219 562.107 L 691.219 562.107 Q 689.61 565.172 688.869 569.362 L 688.869 569.362 L 688.869 569.362 Q 688.128 573.552 688.128 578.457 L 688.128 578.457 L 688.128 578.457 Q 688.128 582.084 688.741 585.227 L 688.741 585.227 L 688.741 585.227 Q 689.354 588.369 690.53 590.668 L 690.53 590.668 L 690.53 590.668 Q 691.705 592.967 693.493 594.296 L 693.493 594.296 L 693.493 594.296 Q 695.281 595.624 697.632 595.624 Z  M 776.877 572.274 L 743.718 581.267 L 743.718 581.267 Q 744.382 584.128 745.506 586.862 L 745.506 586.862 L 745.506 586.862 Q 746.63 589.595 748.265 591.741 L 748.265 591.741 L 748.265 591.741 Q 749.9 593.887 752.046 595.215 L 752.046 595.215 L 752.046 595.215 Q 754.192 596.544 756.9 596.544 L 756.9 596.544 L 756.9 596.544 Q 760.476 596.544 763.133 595.062 L 763.133 595.062 L 763.133 595.062 Q 765.79 593.58 767.476 591.307 L 767.476 591.307 L 767.476 591.307 Q 769.162 589.033 769.826 586.3 L 769.826 586.3 L 769.826 586.3 Q 770.491 583.566 770.082 581.062 L 770.082 581.062 L 770.082 581.062 Q 771.513 581.624 772.458 582.544 L 772.458 582.544 L 772.458 582.544 Q 773.403 583.464 773.939 584.562 L 773.939 584.562 L 773.939 584.562 Q 774.476 585.661 774.68 586.81 L 774.68 586.81 L 774.68 586.81 Q 774.885 587.96 774.885 589.033 L 774.885 589.033 L 774.885 589.033 Q 774.885 591.485 773.454 593.759 L 773.454 593.759 L 773.454 593.759 Q 772.023 596.033 769.443 597.796 L 769.443 597.796 L 769.443 597.796 Q 766.863 599.558 763.338 600.631 L 763.338 600.631 L 763.338 600.631 Q 759.812 601.704 755.622 601.704 L 755.622 601.704 L 755.622 601.704 Q 750.002 601.704 745.583 599.507 L 745.583 599.507 L 745.583 599.507 Q 741.163 597.31 738.097 593.555 L 738.097 593.555 L 738.097 593.555 Q 735.032 589.799 733.397 584.741 L 733.397 584.741 L 733.397 584.741 Q 731.762 579.683 731.762 573.96 L 731.762 573.96 L 731.762 573.96 Q 731.762 568.136 733.397 563.205 L 733.397 563.205 L 733.397 563.205 Q 735.032 558.275 738.225 554.8 L 738.225 554.8 L 738.225 554.8 Q 741.419 551.326 746.068 549.538 L 746.068 549.538 L 746.068 549.538 Q 750.718 547.75 756.798 548.107 L 756.798 548.107 L 756.798 548.107 Q 760.987 548.414 764.513 550.509 L 764.513 550.509 L 764.513 550.509 Q 768.038 552.603 770.669 555.899 L 770.669 555.899 L 770.669 555.899 Q 773.301 559.195 774.91 563.435 L 774.91 563.435 L 774.91 563.435 Q 776.52 567.676 776.877 572.274 L 776.877 572.274 L 776.877 572.274 Z  M 742.747 573.041 L 742.747 573.041 L 742.747 573.041 Q 742.747 573.756 742.747 574.446 L 742.747 574.446 L 742.747 574.446 Q 742.747 575.136 742.849 575.851 L 742.849 575.851 L 765.279 567.676 L 765.279 567.676 Q 764.155 563.997 762.75 561.366 L 762.75 561.366 L 762.75 561.366 Q 761.345 558.735 759.812 557.049 L 759.812 557.049 L 759.812 557.049 Q 758.279 555.363 756.721 554.571 L 756.721 554.571 L 756.721 554.571 Q 755.163 553.779 753.732 553.779 L 753.732 553.779 L 753.732 553.779 Q 751.586 553.779 749.951 554.596 L 749.951 554.596 L 749.951 554.596 Q 748.316 555.414 747.115 556.819 L 747.115 556.819 L 747.115 556.819 Q 745.915 558.224 745.072 560.114 L 745.072 560.114 L 745.072 560.114 Q 744.229 562.005 743.718 564.151 L 743.718 564.151 L 743.718 564.151 Q 743.207 566.296 742.977 568.57 L 742.977 568.57 L 742.977 568.57 Q 742.747 570.844 742.747 573.041 Z  M 828.89 568.289 L 828.89 568.289 L 828.89 568.289 Q 828.89 571.15 828.635 574.318 L 828.635 574.318 L 828.635 574.318 Q 828.379 577.486 827.868 580.654 L 827.868 580.654 L 827.868 580.654 Q 827.358 583.821 826.617 586.836 L 826.617 586.836 L 826.617 586.836 Q 825.876 589.851 824.905 592.354 L 824.905 592.354 L 834.97 595.624 L 808.351 600.836 L 817.394 594.04 L 817.394 594.04 Q 818.467 590.106 818.85 586.478 L 818.85 586.478 L 818.85 586.478 Q 819.234 582.851 819.234 579.632 L 819.234 579.632 L 819.234 579.632 Q 819.234 577.69 819.106 575.212 L 819.106 575.212 L 819.106 575.212 Q 818.978 572.734 818.544 570.18 L 818.544 570.18 L 818.544 570.18 Q 818.11 567.625 817.318 565.172 L 817.318 565.172 L 817.318 565.172 Q 816.526 562.72 815.248 560.804 L 815.248 560.804 L 815.248 560.804 Q 813.971 558.888 812.106 557.738 L 812.106 557.738 L 812.106 557.738 Q 810.241 556.589 807.635 556.589 L 807.635 556.589 L 807.635 556.589 Q 804.621 556.589 801.504 558.581 L 801.504 558.581 L 801.504 558.581 Q 798.388 560.574 795.731 564.457 L 795.731 564.457 L 795.731 592.712 L 804.161 598.741 L 778.87 600.529 L 785.563 593.12 L 789.14 555.976 L 778.257 550.611 L 795.731 548.874 L 795.731 556.589 L 795.731 556.589 Q 797.212 554.545 799.001 552.757 L 799.001 552.757 L 799.001 552.757 Q 800.789 550.968 802.782 549.666 L 802.782 549.666 L 802.782 549.666 Q 804.774 548.363 806.946 547.622 L 806.946 547.622 L 806.946 547.622 Q 809.117 546.881 811.416 546.881 L 811.416 546.881 L 811.416 546.881 Q 815.862 546.881 819.131 548.516 L 819.131 548.516 L 819.131 548.516 Q 822.401 550.151 824.573 553.038 L 824.573 553.038 L 824.573 553.038 Q 826.744 555.925 827.817 559.833 L 827.817 559.833 L 827.817 559.833 Q 828.89 563.742 828.89 568.289 Z  M 840.948 577.639 L 840.948 577.639 L 840.948 577.639 Q 840.948 572.836 841.945 568.059 L 841.945 568.059 L 841.945 568.059 Q 842.941 563.282 844.116 559.297 L 844.116 559.297 L 835.277 559.859 L 860.211 532.626 L 860.211 532.626 Q 857.247 541.976 855.408 549.487 L 855.408 549.487 L 875.283 551.173 L 872.677 557.304 L 853.415 558.684 L 853.415 558.684 Q 852.7 562.413 852.317 565.3 L 852.317 565.3 L 852.317 565.3 Q 851.933 568.187 851.678 570.18 L 851.678 570.18 L 851.678 570.18 Q 851.422 572.53 851.32 574.267 L 851.32 574.267 L 851.32 574.267 Q 851.32 579.376 851.933 583.464 L 851.933 583.464 L 851.933 583.464 Q 852.547 587.551 853.849 590.438 L 853.849 590.438 L 853.849 590.438 Q 855.152 593.325 857.17 594.883 L 857.17 594.883 L 857.17 594.883 Q 859.189 596.442 861.999 596.442 L 861.999 596.442 L 861.999 596.442 Q 864.605 596.442 866.367 595.394 L 866.367 595.394 L 866.367 595.394 Q 868.13 594.347 869.203 592.686 L 869.203 592.686 L 869.203 592.686 Q 870.276 591.026 870.736 588.956 L 870.736 588.956 L 870.736 588.956 Q 871.196 586.887 871.196 584.843 L 871.196 584.843 L 871.196 584.843 Q 871.196 582.953 870.889 581.165 L 870.889 581.165 L 870.889 581.165 Q 873.086 582.289 874.236 584.767 L 874.236 584.767 L 874.236 584.767 Q 875.385 587.245 875.385 590.157 L 875.385 590.157 L 875.385 590.157 Q 875.385 593.172 874.389 595.471 L 874.389 595.471 L 874.389 595.471 Q 873.393 597.77 871.655 599.328 L 871.655 599.328 L 871.655 599.328 Q 869.918 600.887 867.568 601.704 L 867.568 601.704 L 867.568 601.704 Q 865.218 602.522 862.51 602.522 L 862.51 602.522 L 862.51 602.522 Q 860.875 602.522 858.652 602.164 L 858.652 602.164 L 858.652 602.164 Q 856.43 601.806 854.028 600.861 L 854.028 600.861 L 854.028 600.861 Q 851.627 599.916 849.277 598.179 L 849.277 598.179 L 849.277 598.179 Q 846.926 596.442 845.087 593.683 L 845.087 593.683 L 845.087 593.683 Q 843.248 590.923 842.098 586.964 L 842.098 586.964 L 842.098 586.964 Q 840.948 583.004 840.948 577.639 Z  M 898.582 548.005 L 898.582 548.005 L 898.582 548.005 Q 900.523 548.005 902.516 548.337 L 902.516 548.337 L 902.516 548.337 Q 904.508 548.669 906.424 549.308 L 906.424 549.308 L 906.424 549.308 Q 908.34 549.947 910.052 550.841 L 910.052 550.841 L 910.052 550.841 Q 911.764 551.735 913.143 552.808 L 913.143 552.808 L 921.523 542.487 L 917.742 567.983 L 917.742 567.983 Q 917.129 565.326 915.596 562.745 L 915.596 562.745 L 915.596 562.745 Q 914.063 560.165 911.789 558.122 L 911.789 558.122 L 911.789 558.122 Q 909.516 556.078 906.552 554.826 L 906.552 554.826 L 906.552 554.826 Q 903.589 553.574 900.063 553.574 L 900.063 553.574 L 900.063 553.574 Q 898.122 553.574 896.334 554.009 L 896.334 554.009 L 896.334 554.009 Q 894.545 554.443 893.191 555.414 L 893.191 555.414 L 893.191 555.414 Q 891.837 556.384 891.045 557.866 L 891.045 557.866 L 891.045 557.866 Q 890.253 559.348 890.253 561.392 L 890.253 561.392 L 890.253 561.392 Q 890.253 563.844 891.607 565.377 L 891.607 565.377 L 891.607 565.377 Q 892.961 566.91 895.158 567.957 L 895.158 567.957 L 895.158 567.957 Q 897.355 569.004 900.166 569.745 L 900.166 569.745 L 900.166 569.745 Q 902.976 570.486 905.939 571.304 L 905.939 571.304 L 905.939 571.304 Q 908.902 572.121 911.713 573.22 L 911.713 573.22 L 911.713 573.22 Q 914.523 574.318 916.72 576.055 L 916.72 576.055 L 916.72 576.055 Q 918.917 577.792 920.271 580.373 L 920.271 580.373 L 920.271 580.373 Q 921.625 582.953 921.625 586.734 L 921.625 586.734 L 921.625 586.734 Q 921.625 590.975 919.964 593.964 L 919.964 593.964 L 919.964 593.964 Q 918.304 596.952 915.698 598.868 L 915.698 598.868 L 915.698 598.868 Q 913.092 600.784 909.924 601.653 L 909.924 601.653 L 909.924 601.653 Q 906.757 602.522 903.742 602.522 L 903.742 602.522 L 903.742 602.522 Q 901.29 602.522 898.837 602.011 L 898.837 602.011 L 898.837 602.011 Q 896.385 601.5 894.085 600.58 L 894.085 600.58 L 894.085 600.58 Q 891.786 599.66 889.717 598.383 L 889.717 598.383 L 889.717 598.383 Q 887.648 597.106 885.962 595.624 L 885.962 595.624 L 878.195 605.996 L 880.597 580.654 L 880.597 580.654 Q 882.232 584.128 884.531 587.143 L 884.531 587.143 L 884.531 587.143 Q 886.83 590.157 889.64 592.38 L 889.64 592.38 L 889.64 592.38 Q 892.45 594.602 895.669 595.854 L 895.669 595.854 L 895.669 595.854 Q 898.888 597.106 902.363 597.106 L 902.363 597.106 L 902.363 597.106 Q 906.399 597.106 908.826 595.394 L 908.826 595.394 L 908.826 595.394 Q 911.253 593.683 911.253 590.515 L 911.253 590.515 L 911.253 590.515 Q 911.253 588.471 909.899 587.117 L 909.899 587.117 L 909.899 587.117 Q 908.545 585.763 906.322 584.741 L 906.322 584.741 L 906.322 584.741 Q 904.1 583.719 901.29 582.902 L 901.29 582.902 L 901.29 582.902 Q 898.479 582.084 895.516 581.114 L 895.516 581.114 L 895.516 581.114 Q 892.553 580.143 889.742 578.84 L 889.742 578.84 L 889.742 578.84 Q 886.932 577.537 884.71 575.57 L 884.71 575.57 L 884.71 575.57 Q 882.487 573.603 881.133 570.767 L 881.133 570.767 L 881.133 570.767 Q 879.779 567.931 879.779 563.895 L 879.779 563.895 L 879.779 563.895 Q 879.779 560.421 880.801 557.866 L 880.801 557.866 L 880.801 557.866 Q 881.823 555.311 883.484 553.549 L 883.484 553.549 L 883.484 553.549 Q 885.144 551.786 887.213 550.687 L 887.213 550.687 L 887.213 550.687 Q 889.283 549.589 891.377 549.001 L 891.377 549.001 L 891.377 549.001 Q 893.472 548.414 895.363 548.209 L 895.363 548.209 L 895.363 548.209 Q 897.253 548.005 898.582 548.005 Z  M 563.307 453.636 L 563.307 476.781 L 504.601 479.08 L 517.579 467.789 L 520.644 418.381 L 506.594 411.075 L 540.622 408.878 L 529.841 416.184 L 530.454 467.993 L 554.11 470.905 L 563.307 453.636 L 563.307 453.636 Z  M 568.212 453.431 L 568.212 453.431 L 568.212 453.431 Q 568.212 447.709 570.026 442.829 L 570.026 442.829 L 570.026 442.829 Q 571.84 437.95 575.084 434.373 L 575.084 434.373 L 575.084 434.373 Q 578.329 430.797 582.799 428.779 L 582.799 428.779 L 582.799 428.779 Q 587.27 426.761 592.584 426.761 L 592.584 426.761 L 592.584 426.761 Q 597.744 426.761 602.036 428.677 L 602.036 428.677 L 602.036 428.677 Q 606.328 430.593 609.496 434.067 L 609.496 434.067 L 609.496 434.067 Q 612.663 437.541 614.554 442.395 L 614.554 442.395 L 614.554 442.395 Q 616.444 447.249 616.802 453.125 L 616.802 453.125 L 616.802 453.125 Q 617.16 459.409 615.499 464.493 L 615.499 464.493 L 615.499 464.493 Q 613.838 469.577 610.62 473.128 L 610.62 473.128 L 610.62 473.128 Q 607.401 476.679 602.93 478.62 L 602.93 478.62 L 602.93 478.62 Q 598.459 480.562 593.248 480.562 L 593.248 480.562 L 593.248 480.562 Q 588.241 480.562 583.719 478.748 L 583.719 478.748 L 583.719 478.748 Q 579.197 476.934 575.748 473.46 L 575.748 473.46 L 575.748 473.46 Q 572.3 469.986 570.256 464.953 L 570.256 464.953 L 570.256 464.953 Q 568.212 459.92 568.212 453.431 Z  M 580.781 454.3 L 580.781 454.3 L 580.781 454.3 Q 580.781 458.796 582.058 462.424 L 582.058 462.424 L 582.058 462.424 Q 583.336 466.051 585.482 468.58 L 585.482 468.58 L 585.482 468.58 Q 587.628 471.11 590.438 472.489 L 590.438 472.489 L 590.438 472.489 Q 593.248 473.869 596.365 473.869 L 596.365 473.869 L 596.365 473.869 Q 599.481 473.869 602.189 472.515 L 602.189 472.515 L 602.189 472.515 Q 604.897 471.161 606.89 468.683 L 606.89 468.683 L 606.89 468.683 Q 608.882 466.205 610.006 462.73 L 610.006 462.73 L 610.006 462.73 Q 611.131 459.256 611.131 455.015 L 611.131 455.015 L 611.131 455.015 Q 611.131 450.826 610.006 447.121 L 610.006 447.121 L 610.006 447.121 Q 608.882 443.417 606.864 440.658 L 606.864 440.658 L 606.864 440.658 Q 604.846 437.899 602.087 436.315 L 602.087 436.315 L 602.087 436.315 Q 599.328 434.731 596.058 434.731 L 596.058 434.731 L 596.058 434.731 Q 593.146 434.731 590.412 436.06 L 590.412 436.06 L 590.412 436.06 Q 587.679 437.388 585.533 439.917 L 585.533 439.917 L 585.533 439.917 Q 583.387 442.446 582.084 446.074 L 582.084 446.074 L 582.084 446.074 Q 580.781 449.701 580.781 454.3 Z  M 646.998 428.038 L 646.998 428.038 L 646.998 428.038 Q 651.29 428.038 654.79 429.903 L 654.79 429.903 L 654.79 429.903 Q 658.29 431.768 660.436 434.936 L 660.436 434.936 L 670.756 424.461 L 662.275 452.103 L 662.275 452.103 Q 661.815 447.811 660.844 444.822 L 660.844 444.822 L 660.844 444.822 Q 659.874 441.833 658.622 439.866 L 658.622 439.866 L 658.622 439.866 Q 657.37 437.899 656.016 436.826 L 656.016 436.826 L 656.016 436.826 Q 654.662 435.753 653.512 435.242 L 653.512 435.242 L 653.512 435.242 Q 652.363 434.731 651.52 434.629 L 651.52 434.629 L 651.52 434.629 Q 650.677 434.527 650.472 434.527 L 650.472 434.527 L 650.472 434.527 Q 646.794 434.527 643.83 435.957 L 643.83 435.957 L 643.83 435.957 Q 640.867 437.388 638.746 440.147 L 638.746 440.147 L 638.746 440.147 Q 636.626 442.906 635.502 446.917 L 635.502 446.917 L 635.502 446.917 Q 634.378 450.928 634.378 456.037 L 634.378 456.037 L 634.378 456.037 Q 634.378 460.942 635.553 464.697 L 635.553 464.697 L 635.553 464.697 Q 636.728 468.453 638.67 471.007 L 638.67 471.007 L 638.67 471.007 Q 640.611 473.562 643.115 474.865 L 643.115 474.865 L 643.115 474.865 Q 645.619 476.168 648.275 476.168 L 648.275 476.168 L 648.275 476.168 Q 651.392 476.168 654.049 474.763 L 654.049 474.763 L 654.049 474.763 Q 656.706 473.358 658.596 471.059 L 658.596 471.059 L 658.596 471.059 Q 660.487 468.759 661.432 465.77 L 661.432 465.77 L 661.432 465.77 Q 662.377 462.781 662.071 459.614 L 662.071 459.614 L 662.071 459.614 Q 662.684 460.176 663.373 460.993 L 663.373 460.993 L 663.373 460.993 Q 664.063 461.811 664.651 462.807 L 664.651 462.807 L 664.651 462.807 Q 665.238 463.803 665.596 464.953 L 665.596 464.953 L 665.596 464.953 Q 665.954 466.102 665.954 467.278 L 665.954 467.278 L 665.954 467.278 Q 665.954 470.752 664.293 473.537 L 664.293 473.537 L 664.293 473.537 Q 662.633 476.321 660.027 478.263 L 660.027 478.263 L 660.027 478.263 Q 657.421 480.204 654.151 481.252 L 654.151 481.252 L 654.151 481.252 Q 650.881 482.299 647.662 482.299 L 647.662 482.299 L 647.662 482.299 Q 646.283 482.299 643.907 481.992 L 643.907 481.992 L 643.907 481.992 Q 641.531 481.686 638.746 480.741 L 638.746 480.741 L 638.746 480.741 Q 635.962 479.795 633.101 478.007 L 633.101 478.007 L 633.101 478.007 Q 630.239 476.219 627.915 473.256 L 627.915 473.256 L 627.915 473.256 Q 625.59 470.292 624.108 465.949 L 624.108 465.949 L 624.108 465.949 Q 622.627 461.606 622.627 455.526 L 622.627 455.526 L 622.627 455.526 Q 622.627 450.11 623.878 445.946 L 623.878 445.946 L 623.878 445.946 Q 625.13 441.782 627.199 438.716 L 627.199 438.716 L 627.199 438.716 Q 629.269 435.651 631.874 433.607 L 631.874 433.607 L 631.874 433.607 Q 634.48 431.563 637.188 430.337 L 637.188 430.337 L 637.188 430.337 Q 639.896 429.111 642.476 428.574 L 642.476 428.574 L 642.476 428.574 Q 645.057 428.038 646.998 428.038 Z  M 717.762 447.249 L 717.762 447.249 L 717.762 447.249 Q 717.762 449.957 717.456 453.074 L 717.456 453.074 L 717.456 453.074 Q 717.149 456.19 716.562 459.409 L 716.562 459.409 L 716.562 459.409 Q 715.974 462.628 715.182 465.719 L 715.182 465.719 L 715.182 465.719 Q 714.39 468.81 713.47 471.416 L 713.47 471.416 L 724.353 479.08 L 705.091 478.263 L 706.266 471.978 L 706.266 471.978 Q 703.201 475.81 699.19 477.828 L 699.19 477.828 L 699.19 477.828 Q 695.179 479.847 689.916 480.255 L 689.916 480.255 L 689.916 480.255 Q 685.625 480.562 682.431 479.668 L 682.431 479.668 L 682.431 479.668 Q 679.238 478.774 677.118 476.909 L 677.118 476.909 L 677.118 476.909 Q 674.997 475.044 673.975 472.31 L 673.975 472.31 L 673.975 472.31 Q 672.953 469.577 672.953 466.205 L 672.953 466.205 L 672.953 466.205 Q 672.953 463.088 674.486 460.15 L 674.486 460.15 L 674.486 460.15 Q 676.019 457.212 678.906 454.964 L 678.906 454.964 L 678.906 454.964 Q 681.793 452.716 685.982 451.362 L 685.982 451.362 L 685.982 451.362 Q 690.172 450.008 695.486 450.008 L 695.486 450.008 L 695.486 450.008 Q 697.938 450.008 701.131 450.468 L 701.131 450.468 L 701.131 450.468 Q 704.325 450.928 707.186 452.409 L 707.186 452.409 L 707.186 452.409 Q 706.931 449.293 706.241 446.048 L 706.241 446.048 L 706.241 446.048 Q 705.551 442.804 704.223 440.147 L 704.223 440.147 L 704.223 440.147 Q 702.894 437.49 700.774 435.83 L 700.774 435.83 L 700.774 435.83 Q 698.653 434.169 695.486 434.169 L 695.486 434.169 L 695.486 434.169 Q 692.778 434.169 690.223 435.293 L 690.223 435.293 L 690.223 435.293 Q 687.668 436.417 685.446 438.512 L 685.446 438.512 L 685.446 438.512 Q 683.223 440.607 681.435 443.621 L 681.435 443.621 L 681.435 443.621 Q 679.647 446.636 678.42 450.417 L 678.42 450.417 L 674.129 425.381 L 680.617 435.344 L 680.617 435.344 Q 683.019 432.381 685.471 430.618 L 685.471 430.618 L 685.471 430.618 Q 687.924 428.855 690.351 427.91 L 690.351 427.91 L 690.351 427.91 Q 692.778 426.965 695.051 426.658 L 695.051 426.658 L 695.051 426.658 Q 697.325 426.352 699.42 426.352 L 699.42 426.352 L 699.42 426.352 Q 703.354 426.556 706.701 427.961 L 706.701 427.961 L 706.701 427.961 Q 710.047 429.366 712.5 431.998 L 712.5 431.998 L 712.5 431.998 Q 714.952 434.629 716.357 438.461 L 716.357 438.461 L 716.357 438.461 Q 717.762 442.293 717.762 447.249 Z  M 707.186 463.599 L 707.186 463.599 L 707.186 463.599 Q 707.288 462.168 707.339 460.84 L 707.339 460.84 L 707.339 460.84 Q 707.39 459.511 707.39 458.234 L 707.39 458.234 L 707.39 457.621 L 707.39 457.621 Q 705.551 456.906 703.686 456.522 L 703.686 456.522 L 703.686 456.522 Q 701.821 456.139 700.237 455.96 L 700.237 455.96 L 700.237 455.96 Q 698.653 455.782 697.555 455.756 L 697.555 455.756 L 697.555 455.756 Q 696.456 455.731 696.099 455.731 L 696.099 455.731 L 696.099 455.731 Q 693.186 455.833 691.041 456.803 L 691.041 456.803 L 691.041 456.803 Q 688.895 457.774 687.49 459.23 L 687.49 459.23 L 687.49 459.23 Q 686.084 460.687 685.395 462.475 L 685.395 462.475 L 685.395 462.475 Q 684.705 464.263 684.705 466 L 684.705 466 L 684.705 466 Q 684.705 469.934 686.621 471.953 L 686.621 471.953 L 686.621 471.953 Q 688.537 473.971 692.216 473.971 L 692.216 473.971 L 692.216 473.971 Q 694.668 473.971 696.865 473.102 L 696.865 473.102 L 696.865 473.102 Q 699.062 472.234 700.978 470.777 L 700.978 470.777 L 700.978 470.777 Q 702.894 469.321 704.453 467.456 L 704.453 467.456 L 704.453 467.456 Q 706.011 465.592 707.186 463.599 Z  M 744.689 408.367 L 738.404 472.693 L 748.623 476.781 L 723.025 479.285 L 732.222 472.08 L 730.638 416.9 L 718.835 411.79 L 744.689 408.367 L 744.689 408.367 Z " fill="rgb(255,255,255)"/></g></svg>