<?xml version="1.0" encoding="UTF-8" standalone="no"?><!-- Generator: Gravit.io --><svg xmlns="http://www.w3.org/2000/svg" xmlns:xlink="http://www.w3.org/1999/xlink" style="isolation:isolate" viewBox="0 0 900 500" width="900pt" height="500pt"><defs><clipPath id="_clipPath_PedeeM98OgV1JC1UMjkF2Ae8nGkEZ90P"><rect width="900" height="500"/></clipPath></defs><g clip-path="url(#_clipPath_PedeeM98OgV1JC1UMjkF2Ae8nGkEZ90P)"><path d=" M 87.125 306.984 L 87.125 306.984 L 87.125 306.984 Q 94.074 306.984 100.461 308.261 L 100.461 308.261 L 100.461 308.261 Q 106.847 309.538 112.365 311.633 L 112.365 311.633 L 112.365 311.633 Q 117.883 313.728 122.38 316.385 L 122.38 316.385 L 122.38 316.385 Q 126.876 319.042 130.044 321.699 L 130.044 321.699 L 156.612 303.407 L 126.058 362.062 L 123.708 331.304 L 123.708 331.304 Q 120.745 329.26 117.321 327.677 L 117.321 327.677 L 117.321 327.677 Q 113.898 326.093 110.475 325.02 L 110.475 325.02 L 110.475 325.02 Q 107.052 323.947 103.884 323.283 L 103.884 323.283 L 103.884 323.283 Q 100.716 322.618 98.264 322.21 L 98.264 322.21 L 98.264 322.21 Q 95.811 321.801 94.329 321.648 L 94.329 321.648 L 94.329 321.648 Q 92.848 321.494 92.745 321.494 L 92.745 321.494 L 92.745 321.494 Q 85.797 321.494 81.096 323.027 L 81.096 323.027 L 81.096 323.027 Q 76.396 324.56 73.483 327.012 L 73.483 327.012 L 73.483 327.012 Q 70.571 329.465 69.294 332.582 L 69.294 332.582 L 69.294 332.582 Q 68.016 335.698 68.016 338.866 L 68.016 338.866 L 68.016 338.866 Q 68.016 345.304 70.673 349.749 L 70.673 349.749 L 70.673 349.749 Q 73.33 354.194 78.746 357.668 L 78.746 357.668 L 78.746 357.668 Q 84.162 361.143 92.541 364.157 L 92.541 364.157 L 92.541 364.157 Q 100.92 367.172 112.263 370.646 L 112.263 370.646 L 112.263 370.646 Q 119.11 372.792 125.19 376.42 L 125.19 376.42 L 125.19 376.42 Q 131.27 380.047 135.766 384.901 L 135.766 384.901 L 135.766 384.901 Q 140.262 389.755 142.868 395.733 L 142.868 395.733 L 142.868 395.733 Q 145.474 401.711 145.474 408.557 L 145.474 408.557 L 145.474 408.557 Q 145.474 416.528 143.226 422.71 L 143.226 422.71 L 143.226 422.71 Q 140.978 428.892 137.248 433.542 L 137.248 433.542 L 137.248 433.542 Q 133.518 438.191 128.613 441.41 L 128.613 441.41 L 128.613 441.41 Q 123.708 444.629 118.445 446.622 L 118.445 446.622 L 118.445 446.622 Q 113.183 448.614 107.818 449.483 L 107.818 449.483 L 107.818 449.483 Q 102.453 450.352 97.753 450.352 L 97.753 450.352 L 97.753 450.352 Q 83.957 450.352 72.717 445.651 L 72.717 445.651 L 72.717 445.651 Q 61.476 440.95 51.769 432.776 L 51.769 432.776 L 25.2 450.965 L 54.834 398.441 L 54.834 398.441 Q 56.06 405.798 59.177 412.594 L 59.177 412.594 L 59.177 412.594 Q 62.294 419.389 66.892 424.703 L 66.892 424.703 L 66.892 424.703 Q 71.491 430.016 77.52 433.184 L 77.52 433.184 L 77.52 433.184 Q 83.549 436.352 90.702 436.352 L 90.702 436.352 L 90.702 436.352 Q 96.424 436.352 101.176 434.615 L 101.176 434.615 L 101.176 434.615 Q 105.928 432.878 109.3 429.965 L 109.3 429.965 L 109.3 429.965 Q 112.672 427.053 114.562 423.221 L 114.562 423.221 L 114.562 423.221 Q 116.453 419.389 116.453 415.199 L 116.453 415.199 L 116.453 415.199 Q 116.453 409.375 113.183 405.134 L 113.183 405.134 L 113.183 405.134 Q 109.913 400.893 104.599 397.572 L 104.599 397.572 L 104.599 397.572 Q 99.285 394.251 92.49 391.441 L 92.49 391.441 L 92.49 391.441 Q 85.695 388.631 78.542 385.667 L 78.542 385.667 L 78.542 385.667 Q 71.388 382.704 64.593 379.128 L 64.593 379.128 L 64.593 379.128 Q 57.798 375.551 52.484 370.697 L 52.484 370.697 L 52.484 370.697 Q 47.17 365.843 43.9 359.303 L 43.9 359.303 L 43.9 359.303 Q 40.63 352.763 40.63 343.873 L 40.63 343.873 L 40.63 343.873 Q 40.63 337.027 43.338 330.436 L 43.338 330.436 L 43.338 330.436 Q 46.046 323.845 51.718 318.633 L 51.718 318.633 L 51.718 318.633 Q 57.389 313.422 66.177 310.203 L 66.177 310.203 L 66.177 310.203 Q 74.965 306.984 87.125 306.984 Z  M 228.041 341.523 L 266.361 348.063 L 242.142 356.851 L 247.354 467.519 L 265.952 473.855 L 225.588 483.869 L 226.406 432.776 L 226.406 432.776 Q 223.953 436.25 220.939 439.264 L 220.939 439.264 L 220.939 439.264 Q 217.924 442.279 214.348 444.578 L 214.348 444.578 L 214.348 444.578 Q 210.771 446.877 206.632 448.206 L 206.632 448.206 L 206.632 448.206 Q 202.494 449.534 197.691 449.534 L 197.691 449.534 L 197.691 449.534 Q 189.823 449.33 182.721 445.958 L 182.721 445.958 L 182.721 445.958 Q 175.619 442.585 170.254 436.301 L 170.254 436.301 L 170.254 436.301 Q 164.889 430.016 161.721 420.871 L 161.721 420.871 L 161.721 420.871 Q 158.554 411.725 158.554 399.974 L 158.554 399.974 L 158.554 399.974 Q 158.554 385.667 161.926 374.938 L 161.926 374.938 L 161.926 374.938 Q 165.298 364.208 171.123 357.055 L 171.123 357.055 L 171.123 357.055 Q 176.947 349.902 184.765 346.326 L 184.765 346.326 L 184.765 346.326 Q 192.582 342.749 201.472 342.749 L 201.472 342.749 L 201.472 342.749 Q 209.238 342.749 216.034 345.559 L 216.034 345.559 L 216.034 345.559 Q 222.829 348.369 227.836 353.274 L 227.836 353.274 L 228.041 341.523 L 228.041 341.523 Z  M 200.859 436.556 L 200.859 436.556 L 200.859 436.556 Q 202.392 436.556 205.355 435.943 L 205.355 435.943 L 205.355 435.943 Q 208.319 435.33 211.946 433.133 L 211.946 433.133 L 211.946 433.133 Q 215.574 430.936 219.508 426.542 L 219.508 426.542 L 219.508 426.542 Q 223.442 422.148 226.814 414.586 L 226.814 414.586 L 227.427 369.624 L 227.427 369.624 Q 224.158 364.106 219.253 360.274 L 219.253 360.274 L 219.253 360.274 Q 214.348 356.442 208.216 356.442 L 208.216 356.442 L 208.216 356.442 Q 201.166 356.442 196.209 359.916 L 196.209 359.916 L 196.209 359.916 Q 191.253 363.391 188.035 369.522 L 188.035 369.522 L 188.035 369.522 Q 184.816 375.653 183.334 384.032 L 183.334 384.032 L 183.334 384.032 Q 181.852 392.412 181.852 402.222 L 181.852 402.222 L 181.852 402.222 Q 181.852 409.477 183.078 415.761 L 183.078 415.761 L 183.078 415.761 Q 184.305 422.046 186.655 426.644 L 186.655 426.644 L 186.655 426.644 Q 189.005 431.243 192.582 433.9 L 192.582 433.9 L 192.582 433.9 Q 196.158 436.556 200.859 436.556 Z  M 320.009 345.917 L 354.548 345.917 L 358.533 433.797 L 376.927 442.381 L 335.03 450.147 L 336.972 420.207 L 336.972 420.207 Q 334.11 426.236 330.432 431.703 L 330.432 431.703 L 330.432 431.703 Q 326.753 437.17 322.155 441.308 L 322.155 441.308 L 322.155 441.308 Q 317.556 445.447 312.089 447.899 L 312.089 447.899 L 312.089 447.899 Q 306.622 450.352 300.287 450.352 L 300.287 450.352 L 300.287 450.352 Q 292.725 450.352 287.002 447.695 L 287.002 447.695 L 287.002 447.695 Q 281.28 445.038 277.397 440.388 L 277.397 440.388 L 277.397 440.388 Q 273.514 435.739 271.521 429.454 L 271.521 429.454 L 271.521 429.454 Q 269.528 423.17 269.528 416.017 L 269.528 416.017 L 269.528 416.017 Q 269.528 409.375 270.55 402.222 L 270.55 402.222 L 270.55 402.222 Q 271.572 395.069 273.36 388.069 L 273.36 388.069 L 273.36 388.069 Q 275.149 381.069 277.652 374.478 L 277.652 374.478 L 277.652 374.478 Q 280.156 367.887 283.119 362.267 L 283.119 362.267 L 261.558 357.26 L 302.024 343.464 L 302.024 343.464 Q 298.141 353.785 296.046 363.238 L 296.046 363.238 L 296.046 363.238 Q 293.951 372.69 292.929 380.047 L 292.929 380.047 L 292.929 380.047 Q 291.805 388.631 291.499 395.988 L 291.499 395.988 L 291.499 395.988 Q 291.499 405.492 292.827 412.389 L 292.827 412.389 L 292.827 412.389 Q 294.155 419.287 296.506 423.834 L 296.506 423.834 L 296.506 423.834 Q 298.856 428.382 302.126 430.579 L 302.126 430.579 L 302.126 430.579 Q 305.396 432.776 309.279 432.776 L 309.279 432.776 L 309.279 432.776 Q 315.206 432.776 319.906 429.608 L 319.906 429.608 L 319.906 429.608 Q 324.607 426.44 328.235 421.075 L 328.235 421.075 L 328.235 421.075 Q 331.862 415.71 334.468 408.557 L 334.468 408.557 L 334.468 408.557 Q 337.074 401.404 338.76 393.434 L 338.76 393.434 L 338.76 393.434 Q 340.446 385.463 341.263 377.186 L 341.263 377.186 L 341.263 377.186 Q 342.081 368.909 342.183 361.245 L 342.183 361.245 L 320.009 345.917 L 320.009 345.917 Z  M 467.464 389.857 L 401.145 407.842 L 401.145 407.842 Q 402.473 413.564 404.721 419.031 L 404.721 419.031 L 404.721 419.031 Q 406.969 424.498 410.239 428.79 L 410.239 428.79 L 410.239 428.79 Q 413.509 433.082 417.801 435.739 L 417.801 435.739 L 417.801 435.739 Q 422.093 438.396 427.509 438.396 L 427.509 438.396 L 427.509 438.396 Q 434.662 438.396 439.976 435.432 L 439.976 435.432 L 439.976 435.432 Q 445.289 432.469 448.662 427.922 L 448.662 427.922 L 448.662 427.922 Q 452.034 423.374 453.362 417.907 L 453.362 417.907 L 453.362 417.907 Q 454.691 412.44 453.873 407.433 L 453.873 407.433 L 453.873 407.433 Q 456.734 408.557 458.625 410.397 L 458.625 410.397 L 458.625 410.397 Q 460.515 412.236 461.588 414.433 L 461.588 414.433 L 461.588 414.433 Q 462.661 416.63 463.07 418.929 L 463.07 418.929 L 463.07 418.929 Q 463.479 421.228 463.479 423.374 L 463.479 423.374 L 463.479 423.374 Q 463.479 428.279 460.617 432.827 L 460.617 432.827 L 460.617 432.827 Q 457.756 437.374 452.596 440.899 L 452.596 440.899 L 452.596 440.899 Q 447.435 444.425 440.384 446.571 L 440.384 446.571 L 440.384 446.571 Q 433.334 448.717 424.954 448.717 L 424.954 448.717 L 424.954 448.717 Q 413.714 448.717 404.875 444.323 L 404.875 444.323 L 404.875 444.323 Q 396.035 439.929 389.904 432.418 L 389.904 432.418 L 389.904 432.418 Q 383.773 424.907 380.503 414.791 L 380.503 414.791 L 380.503 414.791 Q 377.233 404.674 377.233 393.229 L 377.233 393.229 L 377.233 393.229 Q 377.233 381.58 380.503 371.719 L 380.503 371.719 L 380.503 371.719 Q 383.773 361.858 390.16 354.909 L 390.16 354.909 L 390.16 354.909 Q 396.546 347.961 405.845 344.384 L 405.845 344.384 L 405.845 344.384 Q 415.144 340.808 427.305 341.523 L 427.305 341.523 L 427.305 341.523 Q 435.684 342.136 442.735 346.326 L 442.735 346.326 L 442.735 346.326 Q 449.786 350.515 455.048 357.106 L 455.048 357.106 L 455.048 357.106 Q 460.311 363.697 463.53 372.179 L 463.53 372.179 L 463.53 372.179 Q 466.749 380.66 467.464 389.857 L 467.464 389.857 L 467.464 389.857 Z  M 399.203 391.39 L 399.203 391.39 L 399.203 391.39 Q 399.203 392.821 399.203 394.2 L 399.203 394.2 L 399.203 394.2 Q 399.203 395.58 399.408 397.01 L 399.408 397.01 L 444.268 380.66 L 444.268 380.66 Q 442.019 373.303 439.209 368.04 L 439.209 368.04 L 439.209 368.04 Q 436.399 362.778 433.334 359.406 L 433.334 359.406 L 433.334 359.406 Q 430.268 356.033 427.151 354.449 L 427.151 354.449 L 427.151 354.449 Q 424.035 352.866 421.173 352.866 L 421.173 352.866 L 421.173 352.866 Q 416.882 352.866 413.612 354.501 L 413.612 354.501 L 413.612 354.501 Q 410.342 356.136 407.94 358.946 L 407.94 358.946 L 407.94 358.946 Q 405.539 361.756 403.853 365.537 L 403.853 365.537 L 403.853 365.537 Q 402.167 369.318 401.145 373.609 L 401.145 373.609 L 401.145 373.609 Q 400.123 377.901 399.663 382.449 L 399.663 382.449 L 399.663 382.449 Q 399.203 386.996 399.203 391.39 Z  M 567.913 389.857 L 501.594 407.842 L 501.594 407.842 Q 502.923 413.564 505.171 419.031 L 505.171 419.031 L 505.171 419.031 Q 507.419 424.498 510.689 428.79 L 510.689 428.79 L 510.689 428.79 Q 513.959 433.082 518.251 435.739 L 518.251 435.739 L 518.251 435.739 Q 522.543 438.396 527.958 438.396 L 527.958 438.396 L 527.958 438.396 Q 535.112 438.396 540.425 435.432 L 540.425 435.432 L 540.425 435.432 Q 545.739 432.469 549.111 427.922 L 549.111 427.922 L 549.111 427.922 Q 552.483 423.374 553.812 417.907 L 553.812 417.907 L 553.812 417.907 Q 555.14 412.44 554.323 407.433 L 554.323 407.433 L 554.323 407.433 Q 557.184 408.557 559.074 410.397 L 559.074 410.397 L 559.074 410.397 Q 560.965 412.236 562.038 414.433 L 562.038 414.433 L 562.038 414.433 Q 563.111 416.63 563.519 418.929 L 563.519 418.929 L 563.519 418.929 Q 563.928 421.228 563.928 423.374 L 563.928 423.374 L 563.928 423.374 Q 563.928 428.279 561.067 432.827 L 561.067 432.827 L 561.067 432.827 Q 558.206 437.374 553.045 440.899 L 553.045 440.899 L 553.045 440.899 Q 547.885 444.425 540.834 446.571 L 540.834 446.571 L 540.834 446.571 Q 533.783 448.717 525.404 448.717 L 525.404 448.717 L 525.404 448.717 Q 514.163 448.717 505.324 444.323 L 505.324 444.323 L 505.324 444.323 Q 496.485 439.929 490.354 432.418 L 490.354 432.418 L 490.354 432.418 Q 484.223 424.907 480.953 414.791 L 480.953 414.791 L 480.953 414.791 Q 477.683 404.674 477.683 393.229 L 477.683 393.229 L 477.683 393.229 Q 477.683 381.58 480.953 371.719 L 480.953 371.719 L 480.953 371.719 Q 484.223 361.858 490.609 354.909 L 490.609 354.909 L 490.609 354.909 Q 496.996 347.961 506.295 344.384 L 506.295 344.384 L 506.295 344.384 Q 515.594 340.808 527.754 341.523 L 527.754 341.523 L 527.754 341.523 Q 536.133 342.136 543.184 346.326 L 543.184 346.326 L 543.184 346.326 Q 550.235 350.515 555.498 357.106 L 555.498 357.106 L 555.498 357.106 Q 560.76 363.697 563.979 372.179 L 563.979 372.179 L 563.979 372.179 Q 567.198 380.66 567.913 389.857 L 567.913 389.857 L 567.913 389.857 Z  M 499.653 391.39 L 499.653 391.39 L 499.653 391.39 Q 499.653 392.821 499.653 394.2 L 499.653 394.2 L 499.653 394.2 Q 499.653 395.58 499.857 397.01 L 499.857 397.01 L 544.717 380.66 L 544.717 380.66 Q 542.469 373.303 539.659 368.04 L 539.659 368.04 L 539.659 368.04 Q 536.849 362.778 533.783 359.406 L 533.783 359.406 L 533.783 359.406 Q 530.718 356.033 527.601 354.449 L 527.601 354.449 L 527.601 354.449 Q 524.484 352.866 521.623 352.866 L 521.623 352.866 L 521.623 352.866 Q 517.331 352.866 514.061 354.501 L 514.061 354.501 L 514.061 354.501 Q 510.791 356.136 508.39 358.946 L 508.39 358.946 L 508.39 358.946 Q 505.988 361.756 504.302 365.537 L 504.302 365.537 L 504.302 365.537 Q 502.616 369.318 501.594 373.609 L 501.594 373.609 L 501.594 373.609 Q 500.572 377.901 500.113 382.449 L 500.113 382.449 L 500.113 382.449 Q 499.653 386.996 499.653 391.39 Z  M 581.198 381.887 L 581.198 330.282 L 591.723 348.063 L 662.64 349.493 L 610.934 431.141 L 642.918 437.987 L 662.232 417.345 L 656.509 464.147 L 648.13 448.308 L 572.818 446.775 L 638.32 363.902 L 588.146 368.091 L 581.198 381.887 L 581.198 381.887 Z  M 761.966 389.857 L 695.647 407.842 L 695.647 407.842 Q 696.975 413.564 699.223 419.031 L 699.223 419.031 L 699.223 419.031 Q 701.471 424.498 704.741 428.79 L 704.741 428.79 L 704.741 428.79 Q 708.011 433.082 712.303 435.739 L 712.303 435.739 L 712.303 435.739 Q 716.595 438.396 722.011 438.396 L 722.011 438.396 L 722.011 438.396 Q 729.164 438.396 734.478 435.432 L 734.478 435.432 L 734.478 435.432 Q 739.791 432.469 743.164 427.922 L 743.164 427.922 L 743.164 427.922 Q 746.536 423.374 747.864 417.907 L 747.864 417.907 L 747.864 417.907 Q 749.193 412.44 748.375 407.433 L 748.375 407.433 L 748.375 407.433 Q 751.236 408.557 753.127 410.397 L 753.127 410.397 L 753.127 410.397 Q 755.017 412.236 756.09 414.433 L 756.09 414.433 L 756.09 414.433 Q 757.163 416.63 757.572 418.929 L 757.572 418.929 L 757.572 418.929 Q 757.981 421.228 757.981 423.374 L 757.981 423.374 L 757.981 423.374 Q 757.981 428.279 755.119 432.827 L 755.119 432.827 L 755.119 432.827 Q 752.258 437.374 747.098 440.899 L 747.098 440.899 L 747.098 440.899 Q 741.937 444.425 734.886 446.571 L 734.886 446.571 L 734.886 446.571 Q 727.836 448.717 719.456 448.717 L 719.456 448.717 L 719.456 448.717 Q 708.216 448.717 699.377 444.323 L 699.377 444.323 L 699.377 444.323 Q 690.537 439.929 684.406 432.418 L 684.406 432.418 L 684.406 432.418 Q 678.275 424.907 675.005 414.791 L 675.005 414.791 L 675.005 414.791 Q 671.735 404.674 671.735 393.229 L 671.735 393.229 L 671.735 393.229 Q 671.735 381.58 675.005 371.719 L 675.005 371.719 L 675.005 371.719 Q 678.275 361.858 684.662 354.909 L 684.662 354.909 L 684.662 354.909 Q 691.048 347.961 700.347 344.384 L 700.347 344.384 L 700.347 344.384 Q 709.646 340.808 721.807 341.523 L 721.807 341.523 L 721.807 341.523 Q 730.186 342.136 737.237 346.326 L 737.237 346.326 L 737.237 346.326 Q 744.288 350.515 749.55 357.106 L 749.55 357.106 L 749.55 357.106 Q 754.813 363.697 758.032 372.179 L 758.032 372.179 L 758.032 372.179 Q 761.251 380.66 761.966 389.857 L 761.966 389.857 L 761.966 389.857 Z  M 693.705 391.39 L 693.705 391.39 L 693.705 391.39 Q 693.705 392.821 693.705 394.2 L 693.705 394.2 L 693.705 394.2 Q 693.705 395.58 693.91 397.01 L 693.91 397.01 L 738.77 380.66 L 738.77 380.66 Q 736.521 373.303 733.711 368.04 L 733.711 368.04 L 733.711 368.04 Q 730.901 362.778 727.836 359.406 L 727.836 359.406 L 727.836 359.406 Q 724.77 356.033 721.653 354.449 L 721.653 354.449 L 721.653 354.449 Q 718.537 352.866 715.675 352.866 L 715.675 352.866 L 715.675 352.866 Q 711.384 352.866 708.114 354.501 L 708.114 354.501 L 708.114 354.501 Q 704.844 356.136 702.442 358.946 L 702.442 358.946 L 702.442 358.946 Q 700.041 361.756 698.355 365.537 L 698.355 365.537 L 698.355 365.537 Q 696.669 369.318 695.647 373.609 L 695.647 373.609 L 695.647 373.609 Q 694.625 377.901 694.165 382.449 L 694.165 382.449 L 694.165 382.449 Q 693.705 386.996 693.705 391.39 Z  M 856.591 351.128 L 843.204 375.653 L 843.204 375.653 Q 842.285 371.872 840.599 369.215 L 840.599 369.215 L 840.599 369.215 Q 838.912 366.559 836.818 364.77 L 836.818 364.77 L 836.818 364.77 Q 834.723 362.982 832.373 362.011 L 832.373 362.011 L 832.373 362.011 Q 830.022 361.04 827.672 360.53 L 827.672 360.53 L 827.672 360.53 Q 822.154 359.406 815.92 360.632 L 815.92 360.632 L 815.92 360.632 Q 813.775 361.347 811.322 362.88 L 811.322 362.88 L 811.322 362.88 Q 809.176 364.31 806.417 366.712 L 806.417 366.712 L 806.417 366.712 Q 803.658 369.113 800.49 373.099 L 800.49 373.099 L 802.33 432.367 L 820.723 441.564 L 766.564 446.366 L 780.564 432.162 L 786.286 361.04 L 764.521 351.128 L 799.673 344.486 L 800.082 357.26 L 800.082 357.26 Q 803.658 352.968 807.439 350.209 L 807.439 350.209 L 807.439 350.209 Q 811.22 347.45 814.286 345.712 L 814.286 345.712 L 814.286 345.712 Q 817.862 343.771 821.234 342.749 L 821.234 342.749 L 821.234 342.749 Q 827.365 341.318 833.701 341.625 L 833.701 341.625 L 833.701 341.625 Q 836.358 341.727 839.27 342.238 L 839.27 342.238 L 839.27 342.238 Q 842.182 342.749 845.197 343.822 L 845.197 343.822 L 845.197 343.822 Q 848.211 344.895 851.073 346.683 L 851.073 346.683 L 851.073 346.683 Q 853.934 348.472 856.591 351.128 L 856.591 351.128 L 856.591 351.128 Z  M 115.533 61.123 L 169.999 75.633 L 145.678 84.421 L 115.329 187.323 L 132.7 199.279 L 65.564 204.899 L 83.753 183.747 L 44.207 84.83 L 25.2 75.633 L 87.125 59.283 L 72.206 73.692 L 97.957 181.703 L 131.27 84.012 L 115.533 61.123 L 115.533 61.123 Z  M 218.742 197.235 L 167.035 204.491 L 183.078 191.922 L 179.604 121.413 L 160.7 109.048 L 204.64 101.589 L 196.771 183.542 L 218.742 197.235 L 218.742 197.235 Z  M 205.764 76.859 L 205.764 76.859 L 205.764 76.859 Q 205.764 79.925 204.538 82.633 L 204.538 82.633 L 204.538 82.633 Q 203.311 85.341 201.166 87.436 L 201.166 87.436 L 201.166 87.436 Q 199.02 89.531 196.261 90.706 L 196.261 90.706 L 196.261 90.706 Q 193.502 91.881 190.436 91.881 L 190.436 91.881 L 190.436 91.881 Q 187.166 91.881 184.356 90.706 L 184.356 90.706 L 184.356 90.706 Q 181.546 89.531 179.502 87.436 L 179.502 87.436 L 179.502 87.436 Q 177.458 85.341 176.232 82.633 L 176.232 82.633 L 176.232 82.633 Q 175.006 79.925 175.006 76.859 L 175.006 76.859 L 175.006 76.859 Q 175.006 73.692 176.232 70.984 L 176.232 70.984 L 176.232 70.984 Q 177.458 68.276 179.502 66.232 L 179.502 66.232 L 179.502 66.232 Q 181.546 64.188 184.356 63.013 L 184.356 63.013 L 184.356 63.013 Q 187.166 61.838 190.436 61.838 L 190.436 61.838 L 190.436 61.838 Q 193.502 61.838 196.261 63.013 L 196.261 63.013 L 196.261 63.013 Q 199.02 64.188 201.166 66.232 L 201.166 66.232 L 201.166 66.232 Q 203.311 68.276 204.538 70.984 L 204.538 70.984 L 204.538 70.984 Q 205.764 73.692 205.764 76.859 Z  M 320.009 72.465 L 306.827 190.695 L 329.41 199.075 L 292.418 206.228 L 292.827 186.301 L 292.827 186.301 Q 290.374 190.491 287.207 194.323 L 287.207 194.323 L 287.207 194.323 Q 284.039 198.155 280.105 201.118 L 280.105 201.118 L 280.105 201.118 Q 276.171 204.082 271.368 205.87 L 271.368 205.87 L 271.368 205.87 Q 266.565 207.658 260.945 207.658 L 260.945 207.658 L 260.945 207.658 Q 252.974 207.454 245.872 204.082 L 245.872 204.082 L 245.872 204.082 Q 238.77 200.71 233.405 194.425 L 233.405 194.425 L 233.405 194.425 Q 228.041 188.141 224.924 178.995 L 224.924 178.995 L 224.924 178.995 Q 221.807 169.849 221.807 158.098 L 221.807 158.098 L 221.807 158.098 Q 221.807 143.792 225.179 133.062 L 225.179 133.062 L 225.179 133.062 Q 228.552 122.332 234.376 115.179 L 234.376 115.179 L 234.376 115.179 Q 240.201 108.026 248.018 104.45 L 248.018 104.45 L 248.018 104.45 Q 255.835 100.873 264.726 100.873 L 264.726 100.873 L 264.726 100.873 Q 273.718 100.873 281.433 104.705 L 281.433 104.705 L 281.433 104.705 Q 289.148 108.537 294.053 114.975 L 294.053 114.975 L 294.462 90.859 L 269.528 81.458 L 320.009 72.465 L 320.009 72.465 Z  M 264.112 194.681 L 264.112 194.681 L 264.112 194.681 Q 264.419 194.681 266.156 194.476 L 266.156 194.476 L 266.156 194.476 Q 267.893 194.272 270.448 193.403 L 270.448 193.403 L 270.448 193.403 Q 273.003 192.535 276.119 190.798 L 276.119 190.798 L 276.119 190.798 Q 279.236 189.06 282.353 185.944 L 282.353 185.944 L 282.353 185.944 Q 285.47 182.827 288.331 178.126 L 288.331 178.126 L 288.331 178.126 Q 291.192 173.426 293.236 166.681 L 293.236 166.681 L 293.849 133.369 L 293.849 133.369 Q 292.316 129.69 290.017 126.318 L 290.017 126.318 L 290.017 126.318 Q 287.718 122.946 284.907 120.34 L 284.907 120.34 L 284.907 120.34 Q 282.097 117.734 278.674 116.15 L 278.674 116.15 L 278.674 116.15 Q 275.251 114.566 271.47 114.566 L 271.47 114.566 L 271.47 114.566 Q 264.419 114.566 259.463 118.041 L 259.463 118.041 L 259.463 118.041 Q 254.507 121.515 251.288 127.646 L 251.288 127.646 L 251.288 127.646 Q 248.069 133.777 246.587 142.157 L 246.587 142.157 L 246.587 142.157 Q 245.106 150.536 245.106 160.346 L 245.106 160.346 L 245.106 160.346 Q 245.106 167.601 246.332 173.886 L 246.332 173.886 L 246.332 173.886 Q 247.558 180.17 249.909 184.768 L 249.909 184.768 L 249.909 184.768 Q 252.259 189.367 255.835 192.024 L 255.835 192.024 L 255.835 192.024 Q 259.412 194.681 264.112 194.681 Z  M 422.604 147.981 L 356.285 165.966 L 356.285 165.966 Q 357.613 171.689 359.861 177.156 L 359.861 177.156 L 359.861 177.156 Q 362.11 182.623 365.379 186.914 L 365.379 186.914 L 365.379 186.914 Q 368.649 191.206 372.941 193.863 L 372.941 193.863 L 372.941 193.863 Q 377.233 196.52 382.649 196.52 L 382.649 196.52 L 382.649 196.52 Q 389.802 196.52 395.116 193.557 L 395.116 193.557 L 395.116 193.557 Q 400.43 190.593 403.802 186.046 L 403.802 186.046 L 403.802 186.046 Q 407.174 181.499 408.502 176.032 L 408.502 176.032 L 408.502 176.032 Q 409.831 170.565 409.013 165.557 L 409.013 165.557 L 409.013 165.557 Q 411.874 166.681 413.765 168.521 L 413.765 168.521 L 413.765 168.521 Q 415.655 170.36 416.728 172.557 L 416.728 172.557 L 416.728 172.557 Q 417.801 174.754 418.21 177.053 L 418.21 177.053 L 418.21 177.053 Q 418.619 179.353 418.619 181.499 L 418.619 181.499 L 418.619 181.499 Q 418.619 186.403 415.758 190.951 L 415.758 190.951 L 415.758 190.951 Q 412.896 195.498 407.736 199.024 L 407.736 199.024 L 407.736 199.024 Q 402.575 202.549 395.525 204.695 L 395.525 204.695 L 395.525 204.695 Q 388.474 206.841 380.094 206.841 L 380.094 206.841 L 380.094 206.841 Q 368.854 206.841 360.015 202.447 L 360.015 202.447 L 360.015 202.447 Q 351.176 198.053 345.044 190.542 L 345.044 190.542 L 345.044 190.542 Q 338.913 183.031 335.643 172.915 L 335.643 172.915 L 335.643 172.915 Q 332.373 162.798 332.373 151.353 L 332.373 151.353 L 332.373 151.353 Q 332.373 139.704 335.643 129.843 L 335.643 129.843 L 335.643 129.843 Q 338.913 119.982 345.3 113.033 L 345.3 113.033 L 345.3 113.033 Q 351.686 106.085 360.985 102.508 L 360.985 102.508 L 360.985 102.508 Q 370.284 98.932 382.445 99.647 L 382.445 99.647 L 382.445 99.647 Q 390.824 100.26 397.875 104.45 L 397.875 104.45 L 397.875 104.45 Q 404.926 108.639 410.188 115.23 L 410.188 115.23 L 410.188 115.23 Q 415.451 121.822 418.67 130.303 L 418.67 130.303 L 418.67 130.303 Q 421.889 138.784 422.604 147.981 L 422.604 147.981 L 422.604 147.981 Z  M 354.343 149.514 L 354.343 149.514 L 354.343 149.514 Q 354.343 150.945 354.343 152.324 L 354.343 152.324 L 354.343 152.324 Q 354.343 153.704 354.548 155.134 L 354.548 155.134 L 399.408 138.784 L 399.408 138.784 Q 397.16 131.427 394.349 126.164 L 394.349 126.164 L 394.349 126.164 Q 391.539 120.902 388.474 117.53 L 388.474 117.53 L 388.474 117.53 Q 385.408 114.158 382.291 112.574 L 382.291 112.574 L 382.291 112.574 Q 379.175 110.99 376.313 110.99 L 376.313 110.99 L 376.313 110.99 Q 372.022 110.99 368.752 112.625 L 368.752 112.625 L 368.752 112.625 Q 365.482 114.26 363.08 117.07 L 363.08 117.07 L 363.08 117.07 Q 360.679 119.88 358.993 123.661 L 358.993 123.661 L 358.993 123.661 Q 357.307 127.442 356.285 131.734 L 356.285 131.734 L 356.285 131.734 Q 355.263 136.025 354.803 140.573 L 354.803 140.573 L 354.803 140.573 Q 354.343 145.12 354.343 149.514 Z  M 432.823 152.171 L 432.823 152.171 L 432.823 152.171 Q 432.823 140.726 436.45 130.967 L 436.45 130.967 L 436.45 130.967 Q 440.078 121.208 446.567 114.055 L 446.567 114.055 L 446.567 114.055 Q 453.056 106.902 461.997 102.866 L 461.997 102.866 L 461.997 102.866 Q 470.938 98.83 481.566 98.83 L 481.566 98.83 L 481.566 98.83 Q 491.887 98.83 500.47 102.662 L 500.47 102.662 L 500.47 102.662 Q 509.054 106.494 515.39 113.442 L 515.39 113.442 L 515.39 113.442 Q 521.725 120.391 525.506 130.099 L 525.506 130.099 L 525.506 130.099 Q 529.287 139.806 530.002 151.558 L 530.002 151.558 L 530.002 151.558 Q 530.718 164.127 527.396 174.294 L 527.396 174.294 L 527.396 174.294 Q 524.075 184.462 517.638 191.564 L 517.638 191.564 L 517.638 191.564 Q 511.2 198.666 502.259 202.549 L 502.259 202.549 L 502.259 202.549 Q 493.317 206.432 482.894 206.432 L 482.894 206.432 L 482.894 206.432 Q 472.88 206.432 463.836 202.804 L 463.836 202.804 L 463.836 202.804 Q 454.793 199.177 447.895 192.228 L 447.895 192.228 L 447.895 192.228 Q 440.998 185.279 436.91 175.214 L 436.91 175.214 L 436.91 175.214 Q 432.823 165.149 432.823 152.171 Z  M 457.961 153.908 L 457.961 153.908 L 457.961 153.908 Q 457.961 162.901 460.515 170.156 L 460.515 170.156 L 460.515 170.156 Q 463.07 177.411 467.362 182.469 L 467.362 182.469 L 467.362 182.469 Q 471.654 187.528 477.274 190.287 L 477.274 190.287 L 477.274 190.287 Q 482.894 193.046 489.128 193.046 L 489.128 193.046 L 489.128 193.046 Q 495.361 193.046 500.777 190.338 L 500.777 190.338 L 500.777 190.338 Q 506.193 187.63 510.178 182.674 L 510.178 182.674 L 510.178 182.674 Q 514.163 177.718 516.411 170.769 L 516.411 170.769 L 516.411 170.769 Q 518.659 163.82 518.659 155.339 L 518.659 155.339 L 518.659 155.339 Q 518.659 146.959 516.411 139.551 L 516.411 139.551 L 516.411 139.551 Q 514.163 132.142 510.127 126.624 L 510.127 126.624 L 510.127 126.624 Q 506.091 121.106 500.572 117.938 L 500.572 117.938 L 500.572 117.938 Q 495.054 114.771 488.514 114.771 L 488.514 114.771 L 488.514 114.771 Q 482.69 114.771 477.223 117.427 L 477.223 117.427 L 477.223 117.427 Q 471.756 120.084 467.464 125.143 L 467.464 125.143 L 467.464 125.143 Q 463.172 130.201 460.566 137.456 L 460.566 137.456 L 460.566 137.456 Q 457.961 144.711 457.961 153.908 Z " fill="#7e8795"/></g></svg>